<svg width="486" height="48" viewBox="0 0 486 48" fill="none" xmlns="http://www.w3.org/2000/svg">
<path d="M1.152 17V5.08H3.328V15.08H8.432V17H1.152ZM13.5995 17.192C12.7462 17.192 11.9675 16.9947 11.2635 16.6C10.5702 16.2053 10.0155 15.6667 9.5995 14.984C9.19417 14.3013 8.9915 13.5227 8.9915 12.648C8.9915 11.7733 9.19417 10.9947 9.5995 10.312C10.0155 9.62933 10.5702 9.09067 11.2635 8.696C11.9568 8.30133 12.7355 8.104 13.5995 8.104C14.4528 8.104 15.2262 8.30133 15.9195 8.696C16.6128 9.09067 17.1622 9.62933 17.5675 10.312C17.9835 10.984 18.1915 11.7627 18.1915 12.648C18.1915 13.5227 17.9835 14.3013 17.5675 14.984C17.1515 15.6667 16.5968 16.2053 15.9035 16.6C15.2102 16.9947 14.4422 17.192 13.5995 17.192ZM13.5995 15.272C14.0688 15.272 14.4795 15.16 14.8315 14.936C15.1942 14.712 15.4768 14.4027 15.6795 14.008C15.8928 13.6027 15.9995 13.1493 15.9995 12.648C15.9995 12.136 15.8928 11.688 15.6795 11.304C15.4768 10.9093 15.1942 10.6 14.8315 10.376C14.4795 10.1413 14.0688 10.024 13.5995 10.024C13.1195 10.024 12.6982 10.1413 12.3355 10.376C11.9728 10.6 11.6848 10.9093 11.4715 11.304C11.2688 11.688 11.1675 12.136 11.1675 12.648C11.1675 13.1493 11.2688 13.6027 11.4715 14.008C11.6848 14.4027 11.9728 14.712 12.3355 14.936C12.6982 15.16 13.1195 15.272 13.5995 15.272ZM23.653 17.192C22.789 17.192 22.0103 16.9947 21.317 16.6C20.6343 16.1947 20.0957 15.6507 19.701 14.968C19.3063 14.2747 19.109 13.496 19.109 12.632C19.109 11.768 19.3063 10.9947 19.701 10.312C20.0957 9.62933 20.6343 9.09067 21.317 8.696C22.0103 8.30133 22.789 8.104 23.653 8.104C24.2717 8.104 24.8477 8.216 25.381 8.44C25.9143 8.65333 26.373 8.952 26.757 9.336C27.1517 9.70933 27.4343 10.1573 27.605 10.68L25.765 11.48C25.605 11.0427 25.333 10.6907 24.949 10.424C24.5757 10.1573 24.1437 10.024 23.653 10.024C23.1943 10.024 22.7837 10.136 22.421 10.36C22.069 10.584 21.7917 10.8933 21.589 11.288C21.3863 11.6827 21.285 12.136 21.285 12.648C21.285 13.16 21.3863 13.6133 21.589 14.008C21.7917 14.4027 22.069 14.712 22.421 14.936C22.7837 15.16 23.1943 15.272 23.653 15.272C24.1543 15.272 24.5917 15.1387 24.965 14.872C25.3383 14.6053 25.605 14.248 25.765 13.8L27.605 14.632C27.4343 15.1227 27.157 15.5653 26.773 15.96C26.389 16.344 25.9303 16.648 25.397 16.872C24.8637 17.0853 24.2823 17.192 23.653 17.192ZM31.4841 17.192C30.8761 17.192 30.3481 17.0907 29.9001 16.888C29.4521 16.6853 29.1055 16.3973 28.8601 16.024C28.6148 15.64 28.4921 15.1973 28.4921 14.696C28.4921 14.216 28.5988 13.7893 28.8121 13.416C29.0255 13.032 29.3561 12.712 29.8041 12.456C30.2521 12.2 30.8175 12.0187 31.5001 11.912L34.3481 11.448V13.048L31.9001 13.464C31.4841 13.5387 31.1748 13.672 30.9721 13.864C30.7695 14.056 30.6681 14.3067 30.6681 14.616C30.6681 14.9147 30.7801 15.1547 31.0041 15.336C31.2388 15.5067 31.5268 15.592 31.8681 15.592C32.3055 15.592 32.6895 15.5013 33.0201 15.32C33.3615 15.128 33.6228 14.8667 33.8041 14.536C33.9961 14.2053 34.0921 13.8427 34.0921 13.448V11.208C34.0921 10.8347 33.9428 10.5253 33.6441 10.28C33.3561 10.024 32.9721 9.896 32.4921 9.896C32.0441 9.896 31.6441 10.0187 31.2921 10.264C30.9508 10.4987 30.7001 10.8133 30.5401 11.208L28.8281 10.376C28.9988 9.91733 29.2655 9.52267 29.6281 9.192C30.0015 8.85067 30.4388 8.584 30.9401 8.392C31.4415 8.2 31.9855 8.104 32.5721 8.104C33.2868 8.104 33.9161 8.23733 34.4601 8.504C35.0041 8.76 35.4255 9.12267 35.7241 9.592C36.0335 10.0507 36.1881 10.5893 36.1881 11.208V17H34.2041V15.512L34.6521 15.48C34.4281 15.8533 34.1615 16.168 33.8521 16.424C33.5428 16.6693 33.1908 16.8613 32.7961 17C32.4015 17.128 31.9641 17.192 31.4841 17.192ZM41.6171 17.096C40.6358 17.096 39.8731 16.8293 39.3291 16.296C38.7958 15.752 38.5291 14.9893 38.5291 14.008V10.168H37.0251V8.296H37.1851C37.6118 8.296 37.9425 8.184 38.1771 7.96C38.4118 7.736 38.5291 7.41067 38.5291 6.984V6.312H40.6251V8.296H42.6251V10.168H40.6251V13.896C40.6251 14.184 40.6731 14.4293 40.7691 14.632C40.8758 14.8347 41.0358 14.9893 41.2491 15.096C41.4731 15.2027 41.7558 15.256 42.0971 15.256C42.1718 15.256 42.2571 15.2507 42.3531 15.24C42.4598 15.2293 42.5611 15.2187 42.6571 15.208V17C42.5078 17.0213 42.3371 17.0427 42.1451 17.064C41.9531 17.0853 41.7771 17.096 41.6171 17.096ZM43.9385 17V8.296H46.0345V17H43.9385ZM43.9385 7.32V5.08H46.0345V7.32H43.9385ZM51.9058 17.192C51.0524 17.192 50.2738 16.9947 49.5698 16.6C48.8764 16.2053 48.3218 15.6667 47.9058 14.984C47.5004 14.3013 47.2978 13.5227 47.2978 12.648C47.2978 11.7733 47.5004 10.9947 47.9058 10.312C48.3218 9.62933 48.8764 9.09067 49.5698 8.696C50.2631 8.30133 51.0418 8.104 51.9058 8.104C52.7591 8.104 53.5324 8.30133 54.2258 8.696C54.9191 9.09067 55.4684 9.62933 55.8738 10.312C56.2898 10.984 56.4978 11.7627 56.4978 12.648C56.4978 13.5227 56.2898 14.3013 55.8738 14.984C55.4578 15.6667 54.9031 16.2053 54.2098 16.6C53.5164 16.9947 52.7484 17.192 51.9058 17.192ZM51.9058 15.272C52.3751 15.272 52.7858 15.16 53.1378 14.936C53.5004 14.712 53.7831 14.4027 53.9858 14.008C54.1991 13.6027 54.3058 13.1493 54.3058 12.648C54.3058 12.136 54.1991 11.688 53.9858 11.304C53.7831 10.9093 53.5004 10.6 53.1378 10.376C52.7858 10.1413 52.3751 10.024 51.9058 10.024C51.4258 10.024 51.0044 10.1413 50.6418 10.376C50.2791 10.6 49.9911 10.9093 49.7778 11.304C49.5751 11.688 49.4738 12.136 49.4738 12.648C49.4738 13.1493 49.5751 13.6027 49.7778 14.008C49.9911 14.4027 50.2791 14.712 50.6418 14.936C51.0044 15.16 51.4258 15.272 51.9058 15.272ZM57.7672 17V8.296H59.7352V10.008L59.5752 9.704C59.7779 9.18133 60.1086 8.78667 60.5672 8.52C61.0366 8.24267 61.5806 8.104 62.1992 8.104C62.8392 8.104 63.4046 8.24267 63.8952 8.52C64.3966 8.79733 64.7859 9.18667 65.0632 9.688C65.3406 10.1787 65.4792 10.7493 65.4792 11.4V17H63.3832V11.896C63.3832 11.512 63.3086 11.1813 63.1592 10.904C63.0099 10.6267 62.8019 10.4133 62.5352 10.264C62.2792 10.104 61.9752 10.024 61.6232 10.024C61.2819 10.024 60.9779 10.104 60.7112 10.264C60.4446 10.4133 60.2366 10.6267 60.0872 10.904C59.9379 11.1813 59.8632 11.512 59.8632 11.896V17H57.7672ZM70.2436 17.192C69.3156 17.192 68.505 16.9733 67.8116 16.536C67.129 16.088 66.6596 15.4853 66.4036 14.728L67.9716 13.976C68.1956 14.4667 68.505 14.8507 68.8996 15.128C69.305 15.4053 69.753 15.544 70.2436 15.544C70.6276 15.544 70.9316 15.4587 71.1556 15.288C71.3796 15.1173 71.4916 14.8933 71.4916 14.616C71.4916 14.4453 71.4436 14.3067 71.3476 14.2C71.2623 14.0827 71.1396 13.9867 70.9796 13.912C70.8303 13.8267 70.665 13.7573 70.4836 13.704L69.0596 13.304C68.3236 13.0907 67.7636 12.7653 67.3796 12.328C67.0063 11.8907 66.8196 11.3733 66.8196 10.776C66.8196 10.2427 66.953 9.77867 67.2196 9.384C67.497 8.97867 67.8756 8.664 68.3556 8.44C68.8463 8.216 69.4063 8.104 70.0356 8.104C70.857 8.104 71.5823 8.30133 72.2116 8.696C72.841 9.09067 73.289 9.64533 73.5556 10.36L71.9556 11.112C71.8063 10.7173 71.5556 10.4027 71.2036 10.168C70.8516 9.93333 70.457 9.816 70.0196 9.816C69.6676 9.816 69.3903 9.896 69.1876 10.056C68.985 10.216 68.8836 10.424 68.8836 10.68C68.8836 10.84 68.9263 10.9787 69.0116 11.096C69.097 11.2133 69.2143 11.3093 69.3636 11.384C69.5236 11.4587 69.705 11.528 69.9076 11.592L71.2996 12.008C72.0143 12.2213 72.5636 12.5413 72.9476 12.968C73.3423 13.3947 73.5396 13.9173 73.5396 14.536C73.5396 15.0587 73.401 15.5227 73.1236 15.928C72.8463 16.3227 72.4623 16.632 71.9716 16.856C71.481 17.08 70.905 17.192 70.2436 17.192Z" fill="#1A202C"/>
<path d="M4.068 43.144C3.5 43.144 2.98 43.04 2.508 42.832C2.036 42.616 1.636 42.324 1.308 41.956C0.98 41.588 0.744 41.176 0.6 40.72L1.62 40.3C1.836 40.876 2.156 41.32 2.58 41.632C3.012 41.936 3.516 42.088 4.092 42.088C4.444 42.088 4.752 42.032 5.016 41.92C5.28 41.808 5.484 41.652 5.628 41.452C5.78 41.244 5.856 41.004 5.856 40.732C5.856 40.356 5.748 40.06 5.532 39.844C5.324 39.62 5.016 39.452 4.608 39.34L2.964 38.836C2.316 38.636 1.82 38.32 1.476 37.888C1.132 37.456 0.96 36.96 0.96 36.4C0.96 35.912 1.076 35.484 1.308 35.116C1.548 34.74 1.876 34.448 2.292 34.24C2.716 34.024 3.196 33.916 3.732 33.916C4.268 33.916 4.752 34.012 5.184 34.204C5.624 34.396 5.996 34.656 6.3 34.984C6.604 35.304 6.828 35.672 6.972 36.088L5.964 36.508C5.772 36.004 5.484 35.624 5.1 35.368C4.716 35.104 4.264 34.972 3.744 34.972C3.424 34.972 3.14 35.028 2.892 35.14C2.652 35.244 2.464 35.4 2.328 35.608C2.2 35.808 2.136 36.048 2.136 36.328C2.136 36.656 2.24 36.948 2.448 37.204C2.656 37.46 2.972 37.656 3.396 37.792L4.896 38.236C5.6 38.452 6.132 38.76 6.492 39.16C6.852 39.56 7.032 40.056 7.032 40.648C7.032 41.136 6.904 41.568 6.648 41.944C6.4 42.32 6.052 42.616 5.604 42.832C5.164 43.04 4.652 43.144 4.068 43.144ZM11.3578 43.144C10.7338 43.144 10.1778 42.996 9.68981 42.7C9.20181 42.404 8.81781 42 8.53781 41.488C8.25781 40.968 8.11781 40.388 8.11781 39.748C8.11781 39.1 8.25381 38.524 8.52581 38.02C8.80581 37.516 9.18181 37.12 9.65381 36.832C10.1338 36.536 10.6698 36.388 11.2618 36.388C11.7418 36.388 12.1658 36.476 12.5338 36.652C12.9098 36.82 13.2258 37.052 13.4818 37.348C13.7458 37.636 13.9458 37.968 14.0818 38.344C14.2258 38.712 14.2978 39.096 14.2978 39.496C14.2978 39.584 14.2898 39.684 14.2738 39.796C14.2658 39.9 14.2538 40 14.2378 40.096H8.93381V39.136H13.5898L13.0618 39.568C13.1338 39.152 13.0938 38.78 12.9418 38.452C12.7898 38.124 12.5658 37.864 12.2698 37.672C11.9738 37.48 11.6378 37.384 11.2618 37.384C10.8858 37.384 10.5418 37.48 10.2298 37.672C9.91781 37.864 9.67381 38.14 9.49781 38.5C9.32981 38.852 9.26181 39.272 9.29381 39.76C9.26181 40.232 9.33381 40.648 9.50981 41.008C9.69381 41.36 9.94981 41.636 10.2778 41.836C10.6138 42.028 10.9778 42.124 11.3698 42.124C11.8018 42.124 12.1658 42.024 12.4618 41.824C12.7578 41.624 12.9978 41.368 13.1818 41.056L14.1178 41.536C13.9898 41.832 13.7898 42.104 13.5178 42.352C13.2538 42.592 12.9378 42.784 12.5698 42.928C12.2098 43.072 11.8058 43.144 11.3578 43.144ZM15.5129 43V33.916H16.6289V43H15.5129ZM21.0966 43.144C20.4726 43.144 19.9166 42.996 19.4286 42.7C18.9406 42.404 18.5566 42 18.2766 41.488C17.9966 40.968 17.8566 40.388 17.8566 39.748C17.8566 39.1 17.9926 38.524 18.2646 38.02C18.5446 37.516 18.9206 37.12 19.3926 36.832C19.8726 36.536 20.4086 36.388 21.0006 36.388C21.4806 36.388 21.9046 36.476 22.2726 36.652C22.6486 36.82 22.9646 37.052 23.2206 37.348C23.4846 37.636 23.6846 37.968 23.8206 38.344C23.9646 38.712 24.0366 39.096 24.0366 39.496C24.0366 39.584 24.0286 39.684 24.0126 39.796C24.0046 39.9 23.9926 40 23.9766 40.096H18.6726V39.136H23.3286L22.8006 39.568C22.8726 39.152 22.8326 38.78 22.6806 38.452C22.5286 38.124 22.3046 37.864 22.0086 37.672C21.7126 37.48 21.3766 37.384 21.0006 37.384C20.6246 37.384 20.2806 37.48 19.9686 37.672C19.6566 37.864 19.4126 38.14 19.2366 38.5C19.0686 38.852 19.0006 39.272 19.0326 39.76C19.0006 40.232 19.0726 40.648 19.2486 41.008C19.4326 41.36 19.6886 41.636 20.0166 41.836C20.3526 42.028 20.7166 42.124 21.1086 42.124C21.5406 42.124 21.9046 42.024 22.2006 41.824C22.4966 41.624 22.7366 41.368 22.9206 41.056L23.8566 41.536C23.7286 41.832 23.5286 42.104 23.2566 42.352C22.9926 42.592 22.6766 42.784 22.3086 42.928C21.9486 43.072 21.5446 43.144 21.0966 43.144ZM28.2517 43.144C27.6197 43.144 27.0557 42.996 26.5597 42.7C26.0717 42.404 25.6877 42 25.4077 41.488C25.1277 40.976 24.9877 40.4 24.9877 39.76C24.9877 39.112 25.1277 38.536 25.4077 38.032C25.6877 37.528 26.0717 37.128 26.5597 36.832C27.0557 36.536 27.6197 36.388 28.2517 36.388C28.6757 36.388 29.0717 36.464 29.4397 36.616C29.8077 36.768 30.1317 36.972 30.4117 37.228C30.6917 37.484 30.8957 37.784 31.0237 38.128L30.0277 38.608C29.8757 38.272 29.6437 38 29.3317 37.792C29.0197 37.576 28.6597 37.468 28.2517 37.468C27.8597 37.468 27.5037 37.568 27.1837 37.768C26.8717 37.968 26.6237 38.24 26.4397 38.584C26.2557 38.928 26.1637 39.324 26.1637 39.772C26.1637 40.204 26.2557 40.596 26.4397 40.948C26.6237 41.292 26.8717 41.564 27.1837 41.764C27.5037 41.964 27.8597 42.064 28.2517 42.064C28.6597 42.064 29.0197 41.96 29.3317 41.752C29.6437 41.536 29.8757 41.252 30.0277 40.9L31.0237 41.404C30.8957 41.74 30.6917 42.04 30.4117 42.304C30.1317 42.56 29.8077 42.764 29.4397 42.916C29.0717 43.068 28.6757 43.144 28.2517 43.144ZM34.8701 43.072C34.2381 43.072 33.7501 42.892 33.4061 42.532C33.0701 42.172 32.9021 41.664 32.9021 41.008V37.6H31.7261V36.532H31.9661C32.2541 36.532 32.4821 36.444 32.6501 36.268C32.8181 36.092 32.9021 35.86 32.9021 35.572V35.044H34.0181V36.532H35.4701V37.6H34.0181V40.972C34.0181 41.188 34.0501 41.376 34.1141 41.536C34.1861 41.696 34.3021 41.824 34.4621 41.92C34.6221 42.008 34.8341 42.052 35.0981 42.052C35.1541 42.052 35.2221 42.048 35.3021 42.04C35.3901 42.032 35.4701 42.024 35.5421 42.016V43C35.4381 43.024 35.3221 43.04 35.1941 43.048C35.0661 43.064 34.9581 43.072 34.8701 43.072ZM38.9422 45.64C38.7982 45.64 38.6542 45.628 38.5102 45.604C38.3662 45.588 38.2302 45.552 38.1022 45.496V44.5C38.1902 44.508 38.2982 44.524 38.4262 44.548C38.5622 44.572 38.6942 44.584 38.8222 44.584C39.1982 44.584 39.4822 44.5 39.6742 44.332C39.8742 44.164 40.0622 43.88 40.2382 43.48L40.6462 42.508L40.6222 43.48L37.8622 36.532H39.0742L41.2222 42.052H40.8622L42.9982 36.532H44.2342L41.3182 43.768C41.1822 44.112 41.0062 44.428 40.7902 44.716C40.5822 45.004 40.3262 45.228 40.0222 45.388C39.7182 45.556 39.3582 45.64 38.9422 45.64ZM47.9418 43.144C47.3178 43.144 46.7538 43 46.2498 42.712C45.7458 42.416 45.3458 42.012 45.0498 41.5C44.7538 40.988 44.6058 40.408 44.6058 39.76C44.6058 39.112 44.7498 38.536 45.0378 38.032C45.3338 37.528 45.7338 37.128 46.2378 36.832C46.7418 36.536 47.3098 36.388 47.9418 36.388C48.5658 36.388 49.1298 36.536 49.6338 36.832C50.1378 37.12 50.5338 37.516 50.8218 38.02C51.1178 38.524 51.2658 39.104 51.2658 39.76C51.2658 40.416 51.1138 41 50.8098 41.512C50.5058 42.016 50.1018 42.416 49.5978 42.712C49.1018 43 48.5498 43.144 47.9418 43.144ZM47.9418 42.064C48.3418 42.064 48.7018 41.964 49.0218 41.764C49.3498 41.564 49.6058 41.288 49.7898 40.936C49.9818 40.584 50.0778 40.192 50.0778 39.76C50.0778 39.32 49.9818 38.932 49.7898 38.596C49.6058 38.252 49.3498 37.98 49.0218 37.78C48.7018 37.572 48.3418 37.468 47.9418 37.468C47.5338 37.468 47.1658 37.572 46.8378 37.78C46.5178 37.98 46.2618 38.252 46.0698 38.596C45.8778 38.932 45.7818 39.32 45.7818 39.76C45.7818 40.192 45.8778 40.584 46.0698 40.936C46.2618 41.288 46.5178 41.564 46.8378 41.764C47.1658 41.964 47.5338 42.064 47.9418 42.064ZM54.7733 43.144C54.3093 43.144 53.8893 43.036 53.5133 42.82C53.1453 42.604 52.8573 42.304 52.6493 41.92C52.4493 41.528 52.3493 41.08 52.3493 40.576V36.532H53.4653V40.456C53.4653 40.776 53.5293 41.056 53.6573 41.296C53.7933 41.536 53.9773 41.724 54.2093 41.86C54.4493 41.996 54.7213 42.064 55.0253 42.064C55.3293 42.064 55.5973 41.996 55.8293 41.86C56.0693 41.724 56.2533 41.528 56.3813 41.272C56.5173 41.016 56.5853 40.712 56.5853 40.36V36.532H57.7133V43H56.6213V41.74L56.8013 41.848C56.6493 42.256 56.3893 42.576 56.0213 42.808C55.6613 43.032 55.2453 43.144 54.7733 43.144ZM59.2023 43V36.532H60.2943V37.72L60.1743 37.552C60.3263 37.184 60.5583 36.912 60.8703 36.736C61.1823 36.552 61.5623 36.46 62.0103 36.46H62.4063V37.516H61.8423C61.3863 37.516 61.0183 37.66 60.7383 37.948C60.4583 38.228 60.3183 38.628 60.3183 39.148V43H59.2023ZM67.9918 43.144C67.3598 43.144 66.7958 42.996 66.2998 42.7C65.8118 42.404 65.4278 42 65.1478 41.488C64.8678 40.976 64.7278 40.4 64.7278 39.76C64.7278 39.112 64.8678 38.536 65.1478 38.032C65.4278 37.528 65.8118 37.128 66.2998 36.832C66.7958 36.536 67.3598 36.388 67.9918 36.388C68.4158 36.388 68.8118 36.464 69.1798 36.616C69.5478 36.768 69.8718 36.972 70.1518 37.228C70.4318 37.484 70.6358 37.784 70.7638 38.128L69.7678 38.608C69.6158 38.272 69.3838 38 69.0718 37.792C68.7598 37.576 68.3998 37.468 67.9918 37.468C67.5998 37.468 67.2438 37.568 66.9238 37.768C66.6118 37.968 66.3638 38.24 66.1798 38.584C65.9958 38.928 65.9038 39.324 65.9038 39.772C65.9038 40.204 65.9958 40.596 66.1798 40.948C66.3638 41.292 66.6118 41.564 66.9238 41.764C67.2438 41.964 67.5998 42.064 67.9918 42.064C68.3998 42.064 68.7598 41.96 69.0718 41.752C69.3838 41.536 69.6158 41.252 69.7678 40.9L70.7638 41.404C70.6358 41.74 70.4318 42.04 70.1518 42.304C69.8718 42.56 69.5478 42.764 69.1798 42.916C68.8118 43.068 68.4158 43.144 67.9918 43.144ZM71.9823 43V36.532H73.0983V43H71.9823ZM71.9823 35.5V34.06H73.0983V35.5H71.9823ZM77.2179 43.072C76.5859 43.072 76.0979 42.892 75.7539 42.532C75.4179 42.172 75.2499 41.664 75.2499 41.008V37.6H74.0739V36.532H74.3139C74.6019 36.532 74.8299 36.444 74.9979 36.268C75.1659 36.092 75.2499 35.86 75.2499 35.572V35.044H76.3659V36.532H77.8179V37.6H76.3659V40.972C76.3659 41.188 76.3979 41.376 76.4619 41.536C76.5339 41.696 76.6499 41.824 76.8099 41.92C76.9699 42.008 77.1819 42.052 77.4459 42.052C77.5019 42.052 77.5699 42.048 77.6499 42.04C77.7379 42.032 77.8179 42.024 77.8899 42.016V43C77.7859 43.024 77.6699 43.04 77.5419 43.048C77.4139 43.064 77.3059 43.072 77.2179 43.072ZM79.4558 45.64C79.3118 45.64 79.1678 45.628 79.0238 45.604C78.8798 45.588 78.7438 45.552 78.6158 45.496V44.5C78.7038 44.508 78.8118 44.524 78.9398 44.548C79.0758 44.572 79.2078 44.584 79.3358 44.584C79.7118 44.584 79.9958 44.5 80.1878 44.332C80.3878 44.164 80.5758 43.88 80.7518 43.48L81.1598 42.508L81.1358 43.48L78.3758 36.532H79.5878L81.7358 42.052H81.3758L83.5118 36.532H84.7478L81.8318 43.768C81.6958 44.112 81.5198 44.428 81.3038 44.716C81.0958 45.004 80.8398 45.228 80.5358 45.388C80.2318 45.556 79.8718 45.64 79.4558 45.64Z" fill="#90A3BF"/>
<path d="M119 40.7994C118.592 40.7994 118.184 40.6419 117.875 40.3327L114.071 36.5294C113.902 36.3602 113.902 36.0802 114.071 35.9111C114.24 35.7419 114.52 35.7419 114.69 35.9111L118.493 39.7144C118.773 39.9944 119.228 39.9944 119.508 39.7144L123.311 35.9111C123.48 35.7419 123.76 35.7419 123.93 35.9111C124.099 36.0802 124.099 36.3602 123.93 36.5294L120.126 40.3327C119.817 40.6419 119.409 40.7994 119 40.7994Z" fill="#1A202C" stroke="#1A202C" stroke-width="0.5"/>
<line x1="150.5" y1="0.5" x2="150.5" y2="47.5" stroke="#C3D4E9" stroke-opacity="0.4" stroke-linecap="round"/>
<path d="M175.152 17V5.08H179.04C180.299 5.08 181.392 5.336 182.32 5.848C183.259 6.34933 183.984 7.048 184.496 7.944C185.008 8.82933 185.264 9.85867 185.264 11.032C185.264 12.1947 185.008 13.2293 184.496 14.136C183.984 15.032 183.259 15.736 182.32 16.248C181.392 16.7493 180.299 17 179.04 17H175.152ZM177.328 15.08H179.088C179.899 15.08 180.597 14.9147 181.184 14.584C181.781 14.2427 182.245 13.7733 182.576 13.176C182.907 12.568 183.072 11.8533 183.072 11.032C183.072 10.2 182.907 9.48533 182.576 8.888C182.245 8.29067 181.781 7.82667 181.184 7.496C180.597 7.16533 179.899 7 179.088 7H177.328V15.08ZM189.109 17.192C188.501 17.192 187.973 17.0907 187.525 16.888C187.077 16.6853 186.73 16.3973 186.485 16.024C186.239 15.64 186.117 15.1973 186.117 14.696C186.117 14.216 186.223 13.7893 186.437 13.416C186.65 13.032 186.981 12.712 187.429 12.456C187.877 12.2 188.442 12.0187 189.125 11.912L191.973 11.448V13.048L189.525 13.464C189.109 13.5387 188.799 13.672 188.597 13.864C188.394 14.056 188.293 14.3067 188.293 14.616C188.293 14.9147 188.405 15.1547 188.629 15.336C188.863 15.5067 189.151 15.592 189.493 15.592C189.93 15.592 190.314 15.5013 190.645 15.32C190.986 15.128 191.247 14.8667 191.429 14.536C191.621 14.2053 191.717 13.8427 191.717 13.448V11.208C191.717 10.8347 191.567 10.5253 191.269 10.28C190.981 10.024 190.597 9.896 190.117 9.896C189.669 9.896 189.269 10.0187 188.917 10.264C188.575 10.4987 188.325 10.8133 188.165 11.208L186.453 10.376C186.623 9.91733 186.89 9.52267 187.253 9.192C187.626 8.85067 188.063 8.584 188.565 8.392C189.066 8.2 189.61 8.104 190.197 8.104C190.911 8.104 191.541 8.23733 192.085 8.504C192.629 8.76 193.05 9.12267 193.349 9.592C193.658 10.0507 193.813 10.5893 193.813 11.208V17H191.829V15.512L192.277 15.48C192.053 15.8533 191.786 16.168 191.477 16.424C191.167 16.6693 190.815 16.8613 190.421 17C190.026 17.128 189.589 17.192 189.109 17.192ZM199.242 17.096C198.26 17.096 197.498 16.8293 196.954 16.296C196.42 15.752 196.154 14.9893 196.154 14.008V10.168H194.65V8.296H194.81C195.236 8.296 195.567 8.184 195.802 7.96C196.036 7.736 196.154 7.41067 196.154 6.984V6.312H198.25V8.296H200.25V10.168H198.25V13.896C198.25 14.184 198.298 14.4293 198.394 14.632C198.5 14.8347 198.66 14.9893 198.874 15.096C199.098 15.2027 199.38 15.256 199.722 15.256C199.796 15.256 199.882 15.2507 199.978 15.24C200.084 15.2293 200.186 15.2187 200.282 15.208V17C200.132 17.0213 199.962 17.0427 199.77 17.064C199.578 17.0853 199.402 17.096 199.242 17.096ZM205.613 17.192C204.717 17.192 203.933 16.9893 203.261 16.584C202.589 16.1787 202.066 15.6293 201.693 14.936C201.319 14.2427 201.133 13.4747 201.133 12.632C201.133 11.7573 201.319 10.984 201.693 10.312C202.077 9.62933 202.594 9.09067 203.245 8.696C203.906 8.30133 204.642 8.104 205.453 8.104C206.135 8.104 206.733 8.216 207.245 8.44C207.767 8.664 208.21 8.97333 208.573 9.368C208.935 9.76267 209.213 10.216 209.405 10.728C209.597 11.2293 209.693 11.7733 209.693 12.36C209.693 12.5093 209.682 12.664 209.661 12.824C209.65 12.984 209.623 13.1227 209.581 13.24H202.861V11.64H208.397L207.405 12.392C207.501 11.9013 207.474 11.464 207.325 11.08C207.186 10.696 206.951 10.392 206.621 10.168C206.301 9.944 205.911 9.832 205.453 9.832C205.015 9.832 204.626 9.944 204.285 10.168C203.943 10.3813 203.682 10.7013 203.501 11.128C203.33 11.544 203.266 12.0507 203.309 12.648C203.266 13.1813 203.335 13.656 203.517 14.072C203.709 14.4773 203.986 14.792 204.349 15.016C204.722 15.24 205.149 15.352 205.629 15.352C206.109 15.352 206.514 15.2507 206.845 15.048C207.186 14.8453 207.453 14.5733 207.645 14.232L209.341 15.064C209.17 15.48 208.903 15.848 208.541 16.168C208.178 16.488 207.746 16.7387 207.245 16.92C206.754 17.1013 206.21 17.192 205.613 17.192Z" fill="#1A202C"/>
<path d="M178.068 43.144C177.5 43.144 176.98 43.04 176.508 42.832C176.036 42.616 175.636 42.324 175.308 41.956C174.98 41.588 174.744 41.176 174.6 40.72L175.62 40.3C175.836 40.876 176.156 41.32 176.58 41.632C177.012 41.936 177.516 42.088 178.092 42.088C178.444 42.088 178.752 42.032 179.016 41.92C179.28 41.808 179.484 41.652 179.628 41.452C179.78 41.244 179.856 41.004 179.856 40.732C179.856 40.356 179.748 40.06 179.532 39.844C179.324 39.62 179.016 39.452 178.608 39.34L176.964 38.836C176.316 38.636 175.82 38.32 175.476 37.888C175.132 37.456 174.96 36.96 174.96 36.4C174.96 35.912 175.076 35.484 175.308 35.116C175.548 34.74 175.876 34.448 176.292 34.24C176.716 34.024 177.196 33.916 177.732 33.916C178.268 33.916 178.752 34.012 179.184 34.204C179.624 34.396 179.996 34.656 180.3 34.984C180.604 35.304 180.828 35.672 180.972 36.088L179.964 36.508C179.772 36.004 179.484 35.624 179.1 35.368C178.716 35.104 178.264 34.972 177.744 34.972C177.424 34.972 177.14 35.028 176.892 35.14C176.652 35.244 176.464 35.4 176.328 35.608C176.2 35.808 176.136 36.048 176.136 36.328C176.136 36.656 176.24 36.948 176.448 37.204C176.656 37.46 176.972 37.656 177.396 37.792L178.896 38.236C179.6 38.452 180.132 38.76 180.492 39.16C180.852 39.56 181.032 40.056 181.032 40.648C181.032 41.136 180.904 41.568 180.648 41.944C180.4 42.32 180.052 42.616 179.604 42.832C179.164 43.04 178.652 43.144 178.068 43.144ZM185.358 43.144C184.734 43.144 184.178 42.996 183.69 42.7C183.202 42.404 182.818 42 182.538 41.488C182.258 40.968 182.118 40.388 182.118 39.748C182.118 39.1 182.254 38.524 182.526 38.02C182.806 37.516 183.182 37.12 183.654 36.832C184.134 36.536 184.67 36.388 185.262 36.388C185.742 36.388 186.166 36.476 186.534 36.652C186.91 36.82 187.226 37.052 187.482 37.348C187.746 37.636 187.946 37.968 188.082 38.344C188.226 38.712 188.298 39.096 188.298 39.496C188.298 39.584 188.29 39.684 188.274 39.796C188.266 39.9 188.254 40 188.238 40.096H182.934V39.136H187.59L187.062 39.568C187.134 39.152 187.094 38.78 186.942 38.452C186.79 38.124 186.566 37.864 186.27 37.672C185.974 37.48 185.638 37.384 185.262 37.384C184.886 37.384 184.542 37.48 184.23 37.672C183.918 37.864 183.674 38.14 183.498 38.5C183.33 38.852 183.262 39.272 183.294 39.76C183.262 40.232 183.334 40.648 183.51 41.008C183.694 41.36 183.95 41.636 184.278 41.836C184.614 42.028 184.978 42.124 185.37 42.124C185.802 42.124 186.166 42.024 186.462 41.824C186.758 41.624 186.998 41.368 187.182 41.056L188.118 41.536C187.99 41.832 187.79 42.104 187.518 42.352C187.254 42.592 186.938 42.784 186.57 42.928C186.21 43.072 185.806 43.144 185.358 43.144ZM189.513 43V33.916H190.629V43H189.513ZM195.097 43.144C194.473 43.144 193.917 42.996 193.429 42.7C192.941 42.404 192.557 42 192.277 41.488C191.997 40.968 191.857 40.388 191.857 39.748C191.857 39.1 191.993 38.524 192.265 38.02C192.545 37.516 192.921 37.12 193.393 36.832C193.873 36.536 194.409 36.388 195.001 36.388C195.481 36.388 195.905 36.476 196.273 36.652C196.649 36.82 196.965 37.052 197.221 37.348C197.485 37.636 197.685 37.968 197.821 38.344C197.965 38.712 198.037 39.096 198.037 39.496C198.037 39.584 198.029 39.684 198.013 39.796C198.005 39.9 197.993 40 197.977 40.096H192.673V39.136H197.329L196.801 39.568C196.873 39.152 196.833 38.78 196.681 38.452C196.529 38.124 196.305 37.864 196.009 37.672C195.713 37.48 195.377 37.384 195.001 37.384C194.625 37.384 194.281 37.48 193.969 37.672C193.657 37.864 193.413 38.14 193.237 38.5C193.069 38.852 193.001 39.272 193.033 39.76C193.001 40.232 193.073 40.648 193.249 41.008C193.433 41.36 193.689 41.636 194.017 41.836C194.353 42.028 194.717 42.124 195.109 42.124C195.541 42.124 195.905 42.024 196.201 41.824C196.497 41.624 196.737 41.368 196.921 41.056L197.857 41.536C197.729 41.832 197.529 42.104 197.257 42.352C196.993 42.592 196.677 42.784 196.309 42.928C195.949 43.072 195.545 43.144 195.097 43.144ZM202.252 43.144C201.62 43.144 201.056 42.996 200.56 42.7C200.072 42.404 199.688 42 199.408 41.488C199.128 40.976 198.988 40.4 198.988 39.76C198.988 39.112 199.128 38.536 199.408 38.032C199.688 37.528 200.072 37.128 200.56 36.832C201.056 36.536 201.62 36.388 202.252 36.388C202.676 36.388 203.072 36.464 203.44 36.616C203.808 36.768 204.132 36.972 204.412 37.228C204.692 37.484 204.896 37.784 205.024 38.128L204.028 38.608C203.876 38.272 203.644 38 203.332 37.792C203.02 37.576 202.66 37.468 202.252 37.468C201.86 37.468 201.504 37.568 201.184 37.768C200.872 37.968 200.624 38.24 200.44 38.584C200.256 38.928 200.164 39.324 200.164 39.772C200.164 40.204 200.256 40.596 200.44 40.948C200.624 41.292 200.872 41.564 201.184 41.764C201.504 41.964 201.86 42.064 202.252 42.064C202.66 42.064 203.02 41.96 203.332 41.752C203.644 41.536 203.876 41.252 204.028 40.9L205.024 41.404C204.896 41.74 204.692 42.04 204.412 42.304C204.132 42.56 203.808 42.764 203.44 42.916C203.072 43.068 202.676 43.144 202.252 43.144ZM208.87 43.072C208.238 43.072 207.75 42.892 207.406 42.532C207.07 42.172 206.902 41.664 206.902 41.008V37.6H205.726V36.532H205.966C206.254 36.532 206.482 36.444 206.65 36.268C206.818 36.092 206.902 35.86 206.902 35.572V35.044H208.018V36.532H209.47V37.6H208.018V40.972C208.018 41.188 208.05 41.376 208.114 41.536C208.186 41.696 208.302 41.824 208.462 41.92C208.622 42.008 208.834 42.052 209.098 42.052C209.154 42.052 209.222 42.048 209.302 42.04C209.39 42.032 209.47 42.024 209.542 42.016V43C209.438 43.024 209.322 43.04 209.194 43.048C209.066 43.064 208.958 43.072 208.87 43.072ZM212.942 45.64C212.798 45.64 212.654 45.628 212.51 45.604C212.366 45.588 212.23 45.552 212.102 45.496V44.5C212.19 44.508 212.298 44.524 212.426 44.548C212.562 44.572 212.694 44.584 212.822 44.584C213.198 44.584 213.482 44.5 213.674 44.332C213.874 44.164 214.062 43.88 214.238 43.48L214.646 42.508L214.622 43.48L211.862 36.532H213.074L215.222 42.052H214.862L216.998 36.532H218.234L215.318 43.768C215.182 44.112 215.006 44.428 214.79 44.716C214.582 45.004 214.326 45.228 214.022 45.388C213.718 45.556 213.358 45.64 212.942 45.64ZM221.942 43.144C221.318 43.144 220.754 43 220.25 42.712C219.746 42.416 219.346 42.012 219.05 41.5C218.754 40.988 218.606 40.408 218.606 39.76C218.606 39.112 218.75 38.536 219.038 38.032C219.334 37.528 219.734 37.128 220.238 36.832C220.742 36.536 221.31 36.388 221.942 36.388C222.566 36.388 223.13 36.536 223.634 36.832C224.138 37.12 224.534 37.516 224.822 38.02C225.118 38.524 225.266 39.104 225.266 39.76C225.266 40.416 225.114 41 224.81 41.512C224.506 42.016 224.102 42.416 223.598 42.712C223.102 43 222.55 43.144 221.942 43.144ZM221.942 42.064C222.342 42.064 222.702 41.964 223.022 41.764C223.35 41.564 223.606 41.288 223.79 40.936C223.982 40.584 224.078 40.192 224.078 39.76C224.078 39.32 223.982 38.932 223.79 38.596C223.606 38.252 223.35 37.98 223.022 37.78C222.702 37.572 222.342 37.468 221.942 37.468C221.534 37.468 221.166 37.572 220.838 37.78C220.518 37.98 220.262 38.252 220.07 38.596C219.878 38.932 219.782 39.32 219.782 39.76C219.782 40.192 219.878 40.584 220.07 40.936C220.262 41.288 220.518 41.564 220.838 41.764C221.166 41.964 221.534 42.064 221.942 42.064ZM228.773 43.144C228.309 43.144 227.889 43.036 227.513 42.82C227.145 42.604 226.857 42.304 226.649 41.92C226.449 41.528 226.349 41.08 226.349 40.576V36.532H227.465V40.456C227.465 40.776 227.529 41.056 227.657 41.296C227.793 41.536 227.977 41.724 228.209 41.86C228.449 41.996 228.721 42.064 229.025 42.064C229.329 42.064 229.597 41.996 229.829 41.86C230.069 41.724 230.253 41.528 230.381 41.272C230.517 41.016 230.585 40.712 230.585 40.36V36.532H231.713V43H230.621V41.74L230.801 41.848C230.649 42.256 230.389 42.576 230.021 42.808C229.661 43.032 229.245 43.144 228.773 43.144ZM233.202 43V36.532H234.294V37.72L234.174 37.552C234.326 37.184 234.558 36.912 234.87 36.736C235.182 36.552 235.562 36.46 236.01 36.46H236.406V37.516H235.842C235.386 37.516 235.018 37.66 234.738 37.948C234.458 38.228 234.318 38.628 234.318 39.148V43H233.202ZM241.932 43.144C241.324 43.144 240.776 42.996 240.288 42.7C239.808 42.404 239.428 42 239.148 41.488C238.868 40.976 238.728 40.404 238.728 39.772C238.728 39.124 238.868 38.548 239.148 38.044C239.428 37.532 239.808 37.128 240.288 36.832C240.776 36.536 241.324 36.388 241.932 36.388C242.468 36.388 242.944 36.504 243.36 36.736C243.776 36.96 244.104 37.264 244.344 37.648L244.164 37.924V33.916H245.292V43H244.2V41.62L244.344 41.812C244.12 42.236 243.792 42.564 243.36 42.796C242.936 43.028 242.46 43.144 241.932 43.144ZM242.028 42.064C242.436 42.064 242.8 41.964 243.12 41.764C243.44 41.564 243.692 41.292 243.876 40.948C244.068 40.596 244.164 40.204 244.164 39.772C244.164 39.332 244.068 38.94 243.876 38.596C243.692 38.244 243.44 37.968 243.12 37.768C242.8 37.568 242.436 37.468 242.028 37.468C241.628 37.468 241.264 37.572 240.936 37.78C240.616 37.98 240.364 38.252 240.18 38.596C239.996 38.932 239.904 39.324 239.904 39.772C239.904 40.204 239.996 40.596 240.18 40.948C240.364 41.292 240.616 41.564 240.936 41.764C241.256 41.964 241.62 42.064 242.028 42.064ZM248.675 43.144C248.251 43.144 247.875 43.068 247.547 42.916C247.227 42.756 246.975 42.54 246.791 42.268C246.607 41.988 246.515 41.668 246.515 41.308C246.515 40.964 246.587 40.656 246.731 40.384C246.883 40.104 247.115 39.868 247.427 39.676C247.747 39.484 248.147 39.348 248.627 39.268L251.027 38.872V39.808L248.879 40.168C248.463 40.24 248.159 40.372 247.967 40.564C247.783 40.756 247.691 40.992 247.691 41.272C247.691 41.536 247.795 41.756 248.003 41.932C248.219 42.108 248.487 42.196 248.807 42.196C249.215 42.196 249.567 42.112 249.863 41.944C250.167 41.768 250.403 41.532 250.571 41.236C250.747 40.94 250.835 40.612 250.835 40.252V38.608C250.835 38.256 250.703 37.972 250.439 37.756C250.183 37.532 249.843 37.42 249.419 37.42C249.051 37.42 248.723 37.516 248.435 37.708C248.155 37.892 247.947 38.14 247.811 38.452L246.839 37.948C246.959 37.652 247.151 37.388 247.415 37.156C247.679 36.916 247.987 36.728 248.339 36.592C248.691 36.456 249.059 36.388 249.443 36.388C249.939 36.388 250.375 36.484 250.751 36.676C251.127 36.86 251.419 37.12 251.627 37.456C251.843 37.784 251.951 38.168 251.951 38.608V43H250.859V41.776L251.063 41.848C250.927 42.104 250.743 42.328 250.511 42.52C250.279 42.712 250.007 42.864 249.695 42.976C249.383 43.088 249.043 43.144 248.675 43.144ZM255.952 43.072C255.32 43.072 254.832 42.892 254.488 42.532C254.152 42.172 253.984 41.664 253.984 41.008V37.6H252.808V36.532H253.048C253.336 36.532 253.564 36.444 253.732 36.268C253.9 36.092 253.984 35.86 253.984 35.572V35.044H255.1V36.532H256.552V37.6H255.1V40.972C255.1 41.188 255.132 41.376 255.196 41.536C255.268 41.696 255.384 41.824 255.544 41.92C255.704 42.008 255.916 42.052 256.18 42.052C256.236 42.052 256.304 42.048 256.384 42.04C256.472 42.032 256.552 42.024 256.624 42.016V43C256.52 43.024 256.404 43.04 256.276 43.048C256.148 43.064 256.04 43.072 255.952 43.072ZM260.642 43.144C260.018 43.144 259.462 42.996 258.974 42.7C258.486 42.404 258.102 42 257.822 41.488C257.542 40.968 257.402 40.388 257.402 39.748C257.402 39.1 257.538 38.524 257.81 38.02C258.09 37.516 258.466 37.12 258.938 36.832C259.418 36.536 259.954 36.388 260.546 36.388C261.026 36.388 261.45 36.476 261.818 36.652C262.194 36.82 262.51 37.052 262.766 37.348C263.03 37.636 263.23 37.968 263.366 38.344C263.51 38.712 263.582 39.096 263.582 39.496C263.582 39.584 263.574 39.684 263.558 39.796C263.55 39.9 263.538 40 263.522 40.096H258.218V39.136H262.874L262.346 39.568C262.418 39.152 262.378 38.78 262.226 38.452C262.074 38.124 261.85 37.864 261.554 37.672C261.258 37.48 260.922 37.384 260.546 37.384C260.17 37.384 259.826 37.48 259.514 37.672C259.202 37.864 258.958 38.14 258.782 38.5C258.614 38.852 258.546 39.272 258.578 39.76C258.546 40.232 258.618 40.648 258.794 41.008C258.978 41.36 259.234 41.636 259.562 41.836C259.898 42.028 260.262 42.124 260.654 42.124C261.086 42.124 261.45 42.024 261.746 41.824C262.042 41.624 262.282 41.368 262.466 41.056L263.402 41.536C263.274 41.832 263.074 42.104 262.802 42.352C262.538 42.592 262.222 42.784 261.854 42.928C261.494 43.072 261.09 43.144 260.642 43.144Z" fill="#90A3BF"/>
<path d="M301 40.7994C300.592 40.7994 300.184 40.6419 299.875 40.3327L296.071 36.5294C295.902 36.3602 295.902 36.0802 296.071 35.9111C296.24 35.7419 296.52 35.7419 296.69 35.9111L300.493 39.7144C300.773 39.9944 301.228 39.9944 301.508 39.7144L305.311 35.9111C305.48 35.7419 305.76 35.7419 305.93 35.9111C306.099 36.0802 306.099 36.3602 305.93 36.5294L302.126 40.3327C301.817 40.6419 301.409 40.7994 301 40.7994Z" fill="#1A202C" stroke="#1A202C" stroke-width="0.5"/>
<line x1="332.5" y1="0.5" x2="332.5" y2="47.5" stroke="#C3D4E9" stroke-opacity="0.4" stroke-linecap="round"/>
<path d="M359.264 17V7H356.176V5.08H364.496V7H361.456V17H359.264ZM365.328 17V8.296H367.424V17H365.328ZM365.328 7.32V5.08H367.424V7.32H365.328ZM369.039 17V8.296H371.007V10.312L370.783 9.976C370.943 9.34667 371.263 8.87733 371.743 8.568C372.223 8.25867 372.788 8.104 373.439 8.104C374.154 8.104 374.783 8.29067 375.327 8.664C375.871 9.03733 376.223 9.528 376.383 10.136L375.791 10.184C376.058 9.49067 376.458 8.97333 376.991 8.632C377.524 8.28 378.138 8.104 378.831 8.104C379.45 8.104 379.999 8.24267 380.479 8.52C380.97 8.79733 381.354 9.18667 381.631 9.688C381.908 10.1787 382.047 10.7493 382.047 11.4V17H379.951V11.896C379.951 11.512 379.882 11.1813 379.743 10.904C379.604 10.6267 379.412 10.4133 379.167 10.264C378.922 10.104 378.623 10.024 378.271 10.024C377.94 10.024 377.647 10.104 377.391 10.264C377.135 10.4133 376.938 10.6267 376.799 10.904C376.66 11.1813 376.591 11.512 376.591 11.896V17H374.495V11.896C374.495 11.512 374.426 11.1813 374.287 10.904C374.148 10.6267 373.951 10.4133 373.695 10.264C373.45 10.104 373.156 10.024 372.815 10.024C372.484 10.024 372.191 10.104 371.935 10.264C371.679 10.4133 371.482 10.6267 371.343 10.904C371.204 11.1813 371.135 11.512 371.135 11.896V17H369.039ZM387.628 17.192C386.732 17.192 385.948 16.9893 385.276 16.584C384.604 16.1787 384.082 15.6293 383.708 14.936C383.335 14.2427 383.148 13.4747 383.148 12.632C383.148 11.7573 383.335 10.984 383.708 10.312C384.092 9.62933 384.61 9.09067 385.26 8.696C385.922 8.30133 386.658 8.104 387.468 8.104C388.151 8.104 388.748 8.216 389.26 8.44C389.783 8.664 390.226 8.97333 390.588 9.368C390.951 9.76267 391.228 10.216 391.42 10.728C391.612 11.2293 391.708 11.7733 391.708 12.36C391.708 12.5093 391.698 12.664 391.676 12.824C391.666 12.984 391.639 13.1227 391.596 13.24H384.876V11.64H390.412L389.42 12.392C389.516 11.9013 389.49 11.464 389.34 11.08C389.202 10.696 388.967 10.392 388.636 10.168C388.316 9.944 387.927 9.832 387.468 9.832C387.031 9.832 386.642 9.944 386.3 10.168C385.959 10.3813 385.698 10.7013 385.516 11.128C385.346 11.544 385.282 12.0507 385.324 12.648C385.282 13.1813 385.351 13.656 385.532 14.072C385.724 14.4773 386.002 14.792 386.364 15.016C386.738 15.24 387.164 15.352 387.644 15.352C388.124 15.352 388.53 15.2507 388.86 15.048C389.202 14.8453 389.468 14.5733 389.66 14.232L391.356 15.064C391.186 15.48 390.919 15.848 390.556 16.168C390.194 16.488 389.762 16.7387 389.26 16.92C388.77 17.1013 388.226 17.192 387.628 17.192Z" fill="#1A202C"/>
<path d="M360.068 43.144C359.5 43.144 358.98 43.04 358.508 42.832C358.036 42.616 357.636 42.324 357.308 41.956C356.98 41.588 356.744 41.176 356.6 40.72L357.62 40.3C357.836 40.876 358.156 41.32 358.58 41.632C359.012 41.936 359.516 42.088 360.092 42.088C360.444 42.088 360.752 42.032 361.016 41.92C361.28 41.808 361.484 41.652 361.628 41.452C361.78 41.244 361.856 41.004 361.856 40.732C361.856 40.356 361.748 40.06 361.532 39.844C361.324 39.62 361.016 39.452 360.608 39.34L358.964 38.836C358.316 38.636 357.82 38.32 357.476 37.888C357.132 37.456 356.96 36.96 356.96 36.4C356.96 35.912 357.076 35.484 357.308 35.116C357.548 34.74 357.876 34.448 358.292 34.24C358.716 34.024 359.196 33.916 359.732 33.916C360.268 33.916 360.752 34.012 361.184 34.204C361.624 34.396 361.996 34.656 362.3 34.984C362.604 35.304 362.828 35.672 362.972 36.088L361.964 36.508C361.772 36.004 361.484 35.624 361.1 35.368C360.716 35.104 360.264 34.972 359.744 34.972C359.424 34.972 359.14 35.028 358.892 35.14C358.652 35.244 358.464 35.4 358.328 35.608C358.2 35.808 358.136 36.048 358.136 36.328C358.136 36.656 358.24 36.948 358.448 37.204C358.656 37.46 358.972 37.656 359.396 37.792L360.896 38.236C361.6 38.452 362.132 38.76 362.492 39.16C362.852 39.56 363.032 40.056 363.032 40.648C363.032 41.136 362.904 41.568 362.648 41.944C362.4 42.32 362.052 42.616 361.604 42.832C361.164 43.04 360.652 43.144 360.068 43.144ZM367.358 43.144C366.734 43.144 366.178 42.996 365.69 42.7C365.202 42.404 364.818 42 364.538 41.488C364.258 40.968 364.118 40.388 364.118 39.748C364.118 39.1 364.254 38.524 364.526 38.02C364.806 37.516 365.182 37.12 365.654 36.832C366.134 36.536 366.67 36.388 367.262 36.388C367.742 36.388 368.166 36.476 368.534 36.652C368.91 36.82 369.226 37.052 369.482 37.348C369.746 37.636 369.946 37.968 370.082 38.344C370.226 38.712 370.298 39.096 370.298 39.496C370.298 39.584 370.29 39.684 370.274 39.796C370.266 39.9 370.254 40 370.238 40.096H364.934V39.136H369.59L369.062 39.568C369.134 39.152 369.094 38.78 368.942 38.452C368.79 38.124 368.566 37.864 368.27 37.672C367.974 37.48 367.638 37.384 367.262 37.384C366.886 37.384 366.542 37.48 366.23 37.672C365.918 37.864 365.674 38.14 365.498 38.5C365.33 38.852 365.262 39.272 365.294 39.76C365.262 40.232 365.334 40.648 365.51 41.008C365.694 41.36 365.95 41.636 366.278 41.836C366.614 42.028 366.978 42.124 367.37 42.124C367.802 42.124 368.166 42.024 368.462 41.824C368.758 41.624 368.998 41.368 369.182 41.056L370.118 41.536C369.99 41.832 369.79 42.104 369.518 42.352C369.254 42.592 368.938 42.784 368.57 42.928C368.21 43.072 367.806 43.144 367.358 43.144ZM371.513 43V33.916H372.629V43H371.513ZM377.097 43.144C376.473 43.144 375.917 42.996 375.429 42.7C374.941 42.404 374.557 42 374.277 41.488C373.997 40.968 373.857 40.388 373.857 39.748C373.857 39.1 373.993 38.524 374.265 38.02C374.545 37.516 374.921 37.12 375.393 36.832C375.873 36.536 376.409 36.388 377.001 36.388C377.481 36.388 377.905 36.476 378.273 36.652C378.649 36.82 378.965 37.052 379.221 37.348C379.485 37.636 379.685 37.968 379.821 38.344C379.965 38.712 380.037 39.096 380.037 39.496C380.037 39.584 380.029 39.684 380.013 39.796C380.005 39.9 379.993 40 379.977 40.096H374.673V39.136H379.329L378.801 39.568C378.873 39.152 378.833 38.78 378.681 38.452C378.529 38.124 378.305 37.864 378.009 37.672C377.713 37.48 377.377 37.384 377.001 37.384C376.625 37.384 376.281 37.48 375.969 37.672C375.657 37.864 375.413 38.14 375.237 38.5C375.069 38.852 375.001 39.272 375.033 39.76C375.001 40.232 375.073 40.648 375.249 41.008C375.433 41.36 375.689 41.636 376.017 41.836C376.353 42.028 376.717 42.124 377.109 42.124C377.541 42.124 377.905 42.024 378.201 41.824C378.497 41.624 378.737 41.368 378.921 41.056L379.857 41.536C379.729 41.832 379.529 42.104 379.257 42.352C378.993 42.592 378.677 42.784 378.309 42.928C377.949 43.072 377.545 43.144 377.097 43.144ZM384.252 43.144C383.62 43.144 383.056 42.996 382.56 42.7C382.072 42.404 381.688 42 381.408 41.488C381.128 40.976 380.988 40.4 380.988 39.76C380.988 39.112 381.128 38.536 381.408 38.032C381.688 37.528 382.072 37.128 382.56 36.832C383.056 36.536 383.62 36.388 384.252 36.388C384.676 36.388 385.072 36.464 385.44 36.616C385.808 36.768 386.132 36.972 386.412 37.228C386.692 37.484 386.896 37.784 387.024 38.128L386.028 38.608C385.876 38.272 385.644 38 385.332 37.792C385.02 37.576 384.66 37.468 384.252 37.468C383.86 37.468 383.504 37.568 383.184 37.768C382.872 37.968 382.624 38.24 382.44 38.584C382.256 38.928 382.164 39.324 382.164 39.772C382.164 40.204 382.256 40.596 382.44 40.948C382.624 41.292 382.872 41.564 383.184 41.764C383.504 41.964 383.86 42.064 384.252 42.064C384.66 42.064 385.02 41.96 385.332 41.752C385.644 41.536 385.876 41.252 386.028 40.9L387.024 41.404C386.896 41.74 386.692 42.04 386.412 42.304C386.132 42.56 385.808 42.764 385.44 42.916C385.072 43.068 384.676 43.144 384.252 43.144ZM390.87 43.072C390.238 43.072 389.75 42.892 389.406 42.532C389.07 42.172 388.902 41.664 388.902 41.008V37.6H387.726V36.532H387.966C388.254 36.532 388.482 36.444 388.65 36.268C388.818 36.092 388.902 35.86 388.902 35.572V35.044H390.018V36.532H391.47V37.6H390.018V40.972C390.018 41.188 390.05 41.376 390.114 41.536C390.186 41.696 390.302 41.824 390.462 41.92C390.622 42.008 390.834 42.052 391.098 42.052C391.154 42.052 391.222 42.048 391.302 42.04C391.39 42.032 391.47 42.024 391.542 42.016V43C391.438 43.024 391.322 43.04 391.194 43.048C391.066 43.064 390.958 43.072 390.87 43.072ZM394.942 45.64C394.798 45.64 394.654 45.628 394.51 45.604C394.366 45.588 394.23 45.552 394.102 45.496V44.5C394.19 44.508 394.298 44.524 394.426 44.548C394.562 44.572 394.694 44.584 394.822 44.584C395.198 44.584 395.482 44.5 395.674 44.332C395.874 44.164 396.062 43.88 396.238 43.48L396.646 42.508L396.622 43.48L393.862 36.532H395.074L397.222 42.052H396.862L398.998 36.532H400.234L397.318 43.768C397.182 44.112 397.006 44.428 396.79 44.716C396.582 45.004 396.326 45.228 396.022 45.388C395.718 45.556 395.358 45.64 394.942 45.64ZM403.942 43.144C403.318 43.144 402.754 43 402.25 42.712C401.746 42.416 401.346 42.012 401.05 41.5C400.754 40.988 400.606 40.408 400.606 39.76C400.606 39.112 400.75 38.536 401.038 38.032C401.334 37.528 401.734 37.128 402.238 36.832C402.742 36.536 403.31 36.388 403.942 36.388C404.566 36.388 405.13 36.536 405.634 36.832C406.138 37.12 406.534 37.516 406.822 38.02C407.118 38.524 407.266 39.104 407.266 39.76C407.266 40.416 407.114 41 406.81 41.512C406.506 42.016 406.102 42.416 405.598 42.712C405.102 43 404.55 43.144 403.942 43.144ZM403.942 42.064C404.342 42.064 404.702 41.964 405.022 41.764C405.35 41.564 405.606 41.288 405.79 40.936C405.982 40.584 406.078 40.192 406.078 39.76C406.078 39.32 405.982 38.932 405.79 38.596C405.606 38.252 405.35 37.98 405.022 37.78C404.702 37.572 404.342 37.468 403.942 37.468C403.534 37.468 403.166 37.572 402.838 37.78C402.518 37.98 402.262 38.252 402.07 38.596C401.878 38.932 401.782 39.32 401.782 39.76C401.782 40.192 401.878 40.584 402.07 40.936C402.262 41.288 402.518 41.564 402.838 41.764C403.166 41.964 403.534 42.064 403.942 42.064ZM410.773 43.144C410.309 43.144 409.889 43.036 409.513 42.82C409.145 42.604 408.857 42.304 408.649 41.92C408.449 41.528 408.349 41.08 408.349 40.576V36.532H409.465V40.456C409.465 40.776 409.529 41.056 409.657 41.296C409.793 41.536 409.977 41.724 410.209 41.86C410.449 41.996 410.721 42.064 411.025 42.064C411.329 42.064 411.597 41.996 411.829 41.86C412.069 41.724 412.253 41.528 412.381 41.272C412.517 41.016 412.585 40.712 412.585 40.36V36.532H413.713V43H412.621V41.74L412.801 41.848C412.649 42.256 412.389 42.576 412.021 42.808C411.661 43.032 411.245 43.144 410.773 43.144ZM415.202 43V36.532H416.294V37.72L416.174 37.552C416.326 37.184 416.558 36.912 416.87 36.736C417.182 36.552 417.562 36.46 418.01 36.46H418.406V37.516H417.842C417.386 37.516 417.018 37.66 416.738 37.948C416.458 38.228 416.318 38.628 416.318 39.148V43H415.202ZM423.62 43.072C422.988 43.072 422.5 42.892 422.156 42.532C421.82 42.172 421.652 41.664 421.652 41.008V37.6H420.476V36.532H420.716C421.004 36.532 421.232 36.444 421.4 36.268C421.568 36.092 421.652 35.86 421.652 35.572V35.044H422.768V36.532H424.22V37.6H422.768V40.972C422.768 41.188 422.8 41.376 422.864 41.536C422.936 41.696 423.052 41.824 423.212 41.92C423.372 42.008 423.584 42.052 423.848 42.052C423.904 42.052 423.972 42.048 424.052 42.04C424.14 42.032 424.22 42.024 424.292 42.016V43C424.188 43.024 424.072 43.04 423.944 43.048C423.816 43.064 423.708 43.072 423.62 43.072ZM425.51 43V36.532H426.626V43H425.51ZM425.51 35.5V34.06H426.626V35.5H425.51ZM428.117 43V36.532H429.209V37.852L429.053 37.648C429.213 37.24 429.469 36.928 429.821 36.712C430.173 36.496 430.569 36.388 431.009 36.388C431.513 36.388 431.965 36.528 432.365 36.808C432.773 37.088 433.053 37.456 433.205 37.912L432.893 37.924C433.061 37.42 433.345 37.04 433.745 36.784C434.145 36.52 434.589 36.388 435.077 36.388C435.525 36.388 435.929 36.492 436.289 36.7C436.657 36.908 436.949 37.196 437.165 37.564C437.381 37.932 437.489 38.348 437.489 38.812V43H436.361V39.172C436.361 38.812 436.297 38.508 436.169 38.26C436.041 38.012 435.865 37.82 435.641 37.684C435.425 37.54 435.169 37.468 434.873 37.468C434.585 37.468 434.325 37.54 434.093 37.684C433.869 37.82 433.689 38.016 433.553 38.272C433.425 38.52 433.361 38.82 433.361 39.172V43H432.233V39.172C432.233 38.812 432.169 38.508 432.041 38.26C431.913 38.012 431.737 37.82 431.513 37.684C431.297 37.54 431.041 37.468 430.745 37.468C430.457 37.468 430.197 37.54 429.965 37.684C429.741 37.82 429.561 38.016 429.425 38.272C429.297 38.52 429.233 38.82 429.233 39.172V43H428.117ZM441.81 43.144C441.186 43.144 440.63 42.996 440.142 42.7C439.654 42.404 439.27 42 438.99 41.488C438.71 40.968 438.57 40.388 438.57 39.748C438.57 39.1 438.706 38.524 438.978 38.02C439.258 37.516 439.634 37.12 440.106 36.832C440.586 36.536 441.122 36.388 441.714 36.388C442.194 36.388 442.618 36.476 442.986 36.652C443.362 36.82 443.678 37.052 443.934 37.348C444.198 37.636 444.398 37.968 444.534 38.344C444.678 38.712 444.75 39.096 444.75 39.496C444.75 39.584 444.742 39.684 444.726 39.796C444.718 39.9 444.706 40 444.69 40.096H439.386V39.136H444.042L443.514 39.568C443.586 39.152 443.546 38.78 443.394 38.452C443.242 38.124 443.018 37.864 442.722 37.672C442.426 37.48 442.09 37.384 441.714 37.384C441.338 37.384 440.994 37.48 440.682 37.672C440.37 37.864 440.126 38.14 439.95 38.5C439.782 38.852 439.714 39.272 439.746 39.76C439.714 40.232 439.786 40.648 439.962 41.008C440.146 41.36 440.402 41.636 440.73 41.836C441.066 42.028 441.43 42.124 441.822 42.124C442.254 42.124 442.618 42.024 442.914 41.824C443.21 41.624 443.45 41.368 443.634 41.056L444.57 41.536C444.442 41.832 444.242 42.104 443.97 42.352C443.706 42.592 443.39 42.784 443.022 42.928C442.662 43.072 442.258 43.144 441.81 43.144Z" fill="#90A3BF"/>
<path d="M479 40.7994C478.592 40.7994 478.184 40.6419 477.875 40.3327L474.071 36.5294C473.902 36.3602 473.902 36.0802 474.071 35.9111C474.24 35.7419 474.52 35.7419 474.69 35.9111L478.493 39.7144C478.773 39.9944 479.228 39.9944 479.508 39.7144L483.311 35.9111C483.48 35.7419 483.76 35.7419 483.93 35.9111C484.099 36.0802 484.099 36.3602 483.93 36.5294L480.126 40.3327C479.817 40.6419 479.409 40.7994 479 40.7994Z" fill="#1A202C" stroke="#1A202C" stroke-width="0.5"/>
</svg>
