<svg width="256" height="24" viewBox="0 0 256 24" fill="none" xmlns="http://www.w3.org/2000/svg">
<path d="M22.34 9.33L20.34 8.33C19.97 8.15 19.51 8.29 19.33 8.66C19.14 9.04 19.29 9.49 19.66 9.67L21.25 10.46V15.25L17.5 15.26V5C17.5 3 16.16 2 14.5 2H6.5C4.84 2 3.5 3 3.5 5V21.25H2C1.59 21.25 1.25 21.59 1.25 22C1.25 22.41 1.59 22.75 2 22.75H19C19.41 22.75 19.75 22.41 19.75 22C19.75 21.59 19.41 21.25 19 21.25H17.5V16.76L22 16.75C22.42 16.75 22.75 16.41 22.75 16V10C22.75 9.72 22.59 9.46 22.34 9.33ZM6 6.89C6 5.5 6.85 5 7.89 5H13.12C14.15 5 15 5.5 15 6.89V8.12C15 9.5 14.15 10 13.11 10H7.89C6.85 10 6 9.5 6 8.11V6.89ZM6.5 12.25H9.5C9.91 12.25 10.25 12.59 10.25 13C10.25 13.41 9.91 13.75 9.5 13.75H6.5C6.09 13.75 5.75 13.41 5.75 13C5.75 12.59 6.09 12.25 6.5 12.25Z" fill="#90A3BF"/>
<path d="M31.078 18L35.656 8.76H30.546V7.57H37.098V8.76L32.562 18H31.078ZM42.7519 18.168C41.9213 18.168 41.1933 17.944 40.5679 17.496C39.9519 17.0387 39.4713 16.4087 39.1259 15.606C38.7806 14.794 38.6079 13.8513 38.6079 12.778C38.6079 11.7047 38.7806 10.7667 39.1259 9.964C39.4713 9.152 39.9519 8.522 40.5679 8.074C41.1839 7.626 41.9073 7.402 42.7379 7.402C43.5686 7.402 44.2919 7.626 44.9079 8.074C45.5239 8.522 46.0046 9.152 46.3499 9.964C46.7046 10.7667 46.8819 11.7047 46.8819 12.778C46.8819 13.8513 46.7093 14.794 46.3639 15.606C46.0186 16.418 45.5333 17.048 44.9079 17.496C44.2919 17.944 43.5733 18.168 42.7519 18.168ZM42.7519 16.894C43.3119 16.894 43.7973 16.726 44.2079 16.39C44.6186 16.0447 44.9359 15.564 45.1599 14.948C45.3933 14.332 45.5099 13.6087 45.5099 12.778C45.5099 11.9473 45.3933 11.224 45.1599 10.608C44.9359 9.992 44.6139 9.516 44.1939 9.18C43.7833 8.844 43.2979 8.676 42.7379 8.676C42.1779 8.676 41.6926 8.844 41.2819 9.18C40.8713 9.516 40.5493 9.992 40.3159 10.608C40.0919 11.224 39.9799 11.9473 39.9799 12.778C39.9799 13.5993 40.0919 14.318 40.3159 14.934C40.5493 15.55 40.8713 16.0307 41.2819 16.376C41.7019 16.7213 42.1919 16.894 42.7519 16.894ZM48.9628 18V7.57H50.3348V16.74H54.9128V18H48.9628Z" fill="#90A3BF"/>
<path d="M86 2C80.48 2 76 6.48 76 12C76 17.52 80.48 22 86 22C91.52 22 96 17.52 96 12C96 6.48 91.53 2 86 2Z" fill="#90A3BF"/>
<rect x="78" y="4" width="16" height="16" rx="8" fill="white"/>
<path d="M86 6C82.688 6 80 8.688 80 12C80 15.312 82.688 18 86 18C89.312 18 92 15.312 92 12C92 8.688 89.318 6 86 6Z" fill="#90A3BF"/>
<rect x="82" y="8" width="8" height="8" rx="4" fill="white"/>
<rect x="85" y="17" width="2" height="4" fill="#90A3BF"/>
<rect x="91" y="11" width="4" height="2" fill="#90A3BF"/>
<rect x="77" y="11" width="4" height="2" fill="#90A3BF"/>
<path d="M103.162 18V7.57H104.422L108.328 13.128H107.684L111.562 7.57H112.822V18H111.436V9.306L111.926 9.46L108.048 14.92H107.936L104.1 9.46L104.534 9.306V18H103.162ZM116.917 18.168C116.422 18.168 115.983 18.0793 115.601 17.902C115.227 17.7153 114.933 17.4633 114.719 17.146C114.504 16.8193 114.397 16.446 114.397 16.026C114.397 15.6247 114.481 15.2653 114.649 14.948C114.826 14.6213 115.097 14.346 115.461 14.122C115.834 13.898 116.301 13.7393 116.861 13.646L119.661 13.184V14.276L117.155 14.696C116.669 14.78 116.315 14.934 116.091 15.158C115.876 15.382 115.769 15.6573 115.769 15.984C115.769 16.292 115.89 16.5487 116.133 16.754C116.385 16.9593 116.697 17.062 117.071 17.062C117.547 17.062 117.957 16.964 118.303 16.768C118.657 16.5627 118.933 16.2873 119.129 15.942C119.334 15.5967 119.437 15.214 119.437 14.794V12.876C119.437 12.4653 119.283 12.134 118.975 11.882C118.676 11.6207 118.279 11.49 117.785 11.49C117.355 11.49 116.973 11.602 116.637 11.826C116.31 12.0407 116.067 12.33 115.909 12.694L114.775 12.106C114.915 11.7607 115.139 11.4527 115.447 11.182C115.755 10.902 116.114 10.6827 116.525 10.524C116.935 10.3653 117.365 10.286 117.813 10.286C118.391 10.286 118.9 10.398 119.339 10.622C119.777 10.8367 120.118 11.14 120.361 11.532C120.613 11.9147 120.739 12.3627 120.739 12.876V18H119.465V16.572L119.703 16.656C119.544 16.9547 119.329 17.216 119.059 17.44C118.788 17.664 118.471 17.8413 118.107 17.972C117.743 18.1027 117.346 18.168 116.917 18.168ZM122.477 18V10.454H123.751V11.924L123.541 11.798C123.728 11.322 124.027 10.9533 124.437 10.692C124.857 10.4213 125.347 10.286 125.907 10.286C126.449 10.286 126.929 10.4073 127.349 10.65C127.779 10.8927 128.115 11.2287 128.357 11.658C128.609 12.0873 128.735 12.5727 128.735 13.114V18H127.419V13.534C127.419 13.114 127.345 12.7593 127.195 12.47C127.046 12.1807 126.831 11.9567 126.551 11.798C126.281 11.63 125.968 11.546 125.613 11.546C125.259 11.546 124.941 11.63 124.661 11.798C124.391 11.9567 124.176 12.1853 124.017 12.484C123.859 12.7733 123.779 13.1233 123.779 13.534V18H122.477ZM132.992 18.168C132.451 18.168 131.961 18.042 131.522 17.79C131.093 17.538 130.757 17.188 130.514 16.74C130.281 16.2827 130.164 15.76 130.164 15.172V10.454H131.466V15.032C131.466 15.4053 131.541 15.732 131.69 16.012C131.849 16.292 132.064 16.5113 132.334 16.67C132.614 16.8287 132.932 16.908 133.286 16.908C133.641 16.908 133.954 16.8287 134.224 16.67C134.504 16.5113 134.719 16.2827 134.868 15.984C135.027 15.6853 135.106 15.3307 135.106 14.92V10.454H136.422V18H135.148V16.53L135.358 16.656C135.181 17.132 134.878 17.5053 134.448 17.776C134.028 18.0373 133.543 18.168 132.992 18.168ZM140.371 18.168C139.877 18.168 139.438 18.0793 139.055 17.902C138.682 17.7153 138.388 17.4633 138.173 17.146C137.959 16.8193 137.851 16.446 137.851 16.026C137.851 15.6247 137.935 15.2653 138.103 14.948C138.281 14.6213 138.551 14.346 138.915 14.122C139.289 13.898 139.755 13.7393 140.315 13.646L143.115 13.184V14.276L140.609 14.696C140.124 14.78 139.769 14.934 139.545 15.158C139.331 15.382 139.223 15.6573 139.223 15.984C139.223 16.292 139.345 16.5487 139.587 16.754C139.839 16.9593 140.152 17.062 140.525 17.062C141.001 17.062 141.412 16.964 141.757 16.768C142.112 16.5627 142.387 16.2873 142.583 15.942C142.789 15.5967 142.891 15.214 142.891 14.794V12.876C142.891 12.4653 142.737 12.134 142.429 11.882C142.131 11.6207 141.734 11.49 141.239 11.49C140.81 11.49 140.427 11.602 140.091 11.826C139.765 12.0407 139.522 12.33 139.363 12.694L138.229 12.106C138.369 11.7607 138.593 11.4527 138.901 11.182C139.209 10.902 139.569 10.6827 139.979 10.524C140.39 10.3653 140.819 10.286 141.267 10.286C141.846 10.286 142.355 10.398 142.793 10.622C143.232 10.8367 143.573 11.14 143.815 11.532C144.067 11.9147 144.193 12.3627 144.193 12.876V18H142.919V16.572L143.157 16.656C142.999 16.9547 142.784 17.216 142.513 17.44C142.243 17.664 141.925 17.8413 141.561 17.972C141.197 18.1027 140.801 18.168 140.371 18.168ZM145.932 18V7.402H147.234V18H145.932Z" fill="#90A3BF"/>
<path d="M175 2C172.38 2 170.25 4.13 170.25 6.75C170.25 9.32 172.26 11.4 174.88 11.49C174.96 11.48 175.04 11.48 175.1 11.49C175.12 11.49 175.13 11.49 175.15 11.49C175.16 11.49 175.16 11.49 175.17 11.49C177.73 11.4 179.74 9.32 179.75 6.75C179.75 4.13 177.62 2 175 2Z" fill="#90A3BF"/>
<path d="M180.08 14.1499C177.29 12.2899 172.74 12.2899 169.93 14.1499C168.66 14.9999 167.96 16.1499 167.96 17.3799C167.96 18.6099 168.66 19.7499 169.92 20.5899C171.32 21.5299 173.16 21.9999 175 21.9999C176.84 21.9999 178.68 21.5299 180.08 20.5899C181.34 19.7399 182.04 18.5999 182.04 17.3599C182.03 16.1299 181.34 14.9899 180.08 14.1499Z" fill="#90A3BF"/>
<path d="M185.99 7.3401C186.15 9.2801 184.77 10.9801 182.86 11.2101C182.85 11.2101 182.85 11.2101 182.84 11.2101H182.81C182.75 11.2101 182.69 11.2101 182.64 11.2301C181.67 11.2801 180.78 10.9701 180.11 10.4001C181.14 9.4801 181.73 8.1001 181.61 6.6001C181.54 5.7901 181.26 5.0501 180.84 4.4201C181.22 4.2301 181.66 4.1101 182.11 4.0701C184.07 3.9001 185.82 5.3601 185.99 7.3401Z" fill="#90A3BF"/>
<path d="M187.99 16.5904C187.91 17.5604 187.29 18.4004 186.25 18.9704C185.25 19.5204 183.99 19.7804 182.74 19.7504C183.46 19.1004 183.88 18.2904 183.96 17.4304C184.06 16.1904 183.47 15.0004 182.29 14.0504C181.62 13.5204 180.84 13.1004 179.99 12.7904C182.2 12.1504 184.98 12.5804 186.69 13.9604C187.61 14.7004 188.08 15.6304 187.99 16.5904Z" fill="#90A3BF"/>
<path d="M201.726 18V15.592H196.602V14.458L201.698 7.57H203.014V14.458H204.372V15.592H203.014V18H201.726ZM197.638 14.948L197.442 14.458H201.726V8.718L202.132 8.83L197.638 14.948ZM207.95 18V7.57H211.632C212.322 7.57 212.929 7.70067 213.452 7.962C213.974 8.22333 214.38 8.59667 214.67 9.082C214.968 9.56733 215.118 10.1367 215.118 10.79C215.118 11.4433 214.968 12.0127 214.67 12.498C214.38 12.974 213.974 13.3473 213.452 13.618C212.938 13.8793 212.332 14.01 211.632 14.01H209.322V18H207.95ZM209.322 12.75H211.674C212.094 12.75 212.458 12.6707 212.766 12.512C213.074 12.3533 213.312 12.1247 213.48 11.826C213.648 11.5273 213.732 11.182 213.732 10.79C213.732 10.3887 213.648 10.0433 213.48 9.754C213.312 9.45533 213.074 9.22667 212.766 9.068C212.458 8.90933 212.094 8.83 211.674 8.83H209.322V12.75ZM219.738 18.168C219.01 18.168 218.361 17.9953 217.792 17.65C217.222 17.3047 216.774 16.8333 216.448 16.236C216.121 15.6293 215.958 14.9527 215.958 14.206C215.958 13.45 216.116 12.778 216.434 12.19C216.76 11.602 217.199 11.14 217.75 10.804C218.31 10.4587 218.935 10.286 219.626 10.286C220.186 10.286 220.68 10.3887 221.11 10.594C221.548 10.79 221.917 11.0607 222.216 11.406C222.524 11.742 222.757 12.1293 222.916 12.568C223.084 12.9973 223.168 13.4453 223.168 13.912C223.168 14.0147 223.158 14.1313 223.14 14.262C223.13 14.3833 223.116 14.5 223.098 14.612H216.91V13.492H222.342L221.726 13.996C221.81 13.5107 221.763 13.0767 221.586 12.694C221.408 12.3113 221.147 12.008 220.802 11.784C220.456 11.56 220.064 11.448 219.626 11.448C219.187 11.448 218.786 11.56 218.422 11.784C218.058 12.008 217.773 12.33 217.568 12.75C217.372 13.1607 217.292 13.6507 217.33 14.22C217.292 14.7707 217.376 15.256 217.582 15.676C217.796 16.0867 218.095 16.4087 218.478 16.642C218.87 16.866 219.294 16.978 219.752 16.978C220.256 16.978 220.68 16.8613 221.026 16.628C221.371 16.3947 221.651 16.096 221.866 15.732L222.958 16.292C222.808 16.6373 222.575 16.9547 222.258 17.244C221.95 17.524 221.581 17.748 221.152 17.916C220.732 18.084 220.26 18.168 219.738 18.168ZM228.169 18.168C227.441 18.168 226.783 18 226.195 17.664C225.607 17.3187 225.141 16.8473 224.795 16.25C224.45 15.6527 224.277 14.976 224.277 14.22C224.277 13.464 224.445 12.792 224.781 12.204C225.127 11.616 225.593 11.1493 226.181 10.804C226.769 10.4587 227.432 10.286 228.169 10.286C228.897 10.286 229.555 10.4587 230.143 10.804C230.731 11.14 231.193 11.602 231.529 12.19C231.875 12.778 232.047 13.4547 232.047 14.22C232.047 14.9853 231.87 15.6667 231.515 16.264C231.161 16.852 230.689 17.3187 230.101 17.664C229.523 18 228.879 18.168 228.169 18.168ZM228.169 16.908C228.636 16.908 229.056 16.7913 229.429 16.558C229.812 16.3247 230.111 16.0027 230.325 15.592C230.549 15.1813 230.661 14.724 230.661 14.22C230.661 13.7067 230.549 13.254 230.325 12.862C230.111 12.4607 229.812 12.1433 229.429 11.91C229.056 11.6673 228.636 11.546 228.169 11.546C227.693 11.546 227.264 11.6673 226.881 11.91C226.508 12.1433 226.209 12.4607 225.985 12.862C225.761 13.254 225.649 13.7067 225.649 14.22C225.649 14.724 225.761 15.1813 225.985 15.592C226.209 16.0027 226.508 16.3247 226.881 16.558C227.264 16.7913 227.693 16.908 228.169 16.908ZM233.465 20.8V10.454H234.739V12.078L234.571 11.756C234.851 11.308 235.234 10.9533 235.719 10.692C236.205 10.4213 236.76 10.286 237.385 10.286C238.095 10.286 238.729 10.4587 239.289 10.804C239.859 11.1493 240.307 11.6207 240.633 12.218C240.96 12.806 241.123 13.478 241.123 14.234C241.123 14.9713 240.96 15.6387 240.633 16.236C240.307 16.8333 239.859 17.3047 239.289 17.65C238.729 17.9953 238.09 18.168 237.371 18.168C236.765 18.168 236.209 18.0327 235.705 17.762C235.211 17.4913 234.828 17.1087 234.557 16.614L234.767 16.39V20.8H233.465ZM237.273 16.908C237.749 16.908 238.174 16.7913 238.547 16.558C238.921 16.3247 239.21 16.0073 239.415 15.606C239.63 15.1953 239.737 14.738 239.737 14.234C239.737 13.7113 239.63 13.254 239.415 12.862C239.21 12.4607 238.921 12.1433 238.547 11.91C238.174 11.6673 237.749 11.546 237.273 11.546C236.797 11.546 236.368 11.6627 235.985 11.896C235.612 12.1293 235.313 12.4513 235.089 12.862C234.875 13.2633 234.767 13.7207 234.767 14.234C234.767 14.738 234.875 15.1953 235.089 15.606C235.313 16.0073 235.612 16.3247 235.985 16.558C236.368 16.7913 236.797 16.908 237.273 16.908ZM242.551 18V7.402H243.853V18H242.551ZM249.065 18.168C248.337 18.168 247.688 17.9953 247.119 17.65C246.55 17.3047 246.102 16.8333 245.775 16.236C245.448 15.6293 245.285 14.9527 245.285 14.206C245.285 13.45 245.444 12.778 245.761 12.19C246.088 11.602 246.526 11.14 247.077 10.804C247.637 10.4587 248.262 10.286 248.953 10.286C249.513 10.286 250.008 10.3887 250.437 10.594C250.876 10.79 251.244 11.0607 251.543 11.406C251.851 11.742 252.084 12.1293 252.243 12.568C252.411 12.9973 252.495 13.4453 252.495 13.912C252.495 14.0147 252.486 14.1313 252.467 14.262C252.458 14.3833 252.444 14.5 252.425 14.612H246.237V13.492H251.669L251.053 13.996C251.137 13.5107 251.09 13.0767 250.913 12.694C250.736 12.3113 250.474 12.008 250.129 11.784C249.784 11.56 249.392 11.448 248.953 11.448C248.514 11.448 248.113 11.56 247.749 11.784C247.385 12.008 247.1 12.33 246.895 12.75C246.699 13.1607 246.62 13.6507 246.657 14.22C246.62 14.7707 246.704 15.256 246.909 15.676C247.124 16.0867 247.422 16.4087 247.805 16.642C248.197 16.866 248.622 16.978 249.079 16.978C249.583 16.978 250.008 16.8613 250.353 16.628C250.698 16.3947 250.978 16.096 251.193 15.732L252.285 16.292C252.136 16.6373 251.902 16.9547 251.585 17.244C251.277 17.524 250.908 17.748 250.479 17.916C250.059 18.084 249.588 18.168 249.065 18.168Z" fill="#90A3BF"/>
</svg>
