<svg width="256" height="24" viewBox="0 0 256 24" fill="none" xmlns="http://www.w3.org/2000/svg">
<path d="M22.34 9.33L20.34 8.33C19.97 8.15 19.51 8.29 19.33 8.66C19.14 9.04 19.29 9.49 19.66 9.67L21.25 10.46V15.25L17.5 15.26V5C17.5 3 16.16 2 14.5 2H6.5C4.84 2 3.5 3 3.5 5V21.25H2C1.59 21.25 1.25 21.59 1.25 22C1.25 22.41 1.59 22.75 2 22.75H19C19.41 22.75 19.75 22.41 19.75 22C19.75 21.59 19.41 21.25 19 21.25H17.5V16.76L22 16.75C22.42 16.75 22.75 16.41 22.75 16V10C22.75 9.72 22.59 9.46 22.34 9.33ZM6 6.89C6 5.5 6.85 5 7.89 5H13.12C14.15 5 15 5.5 15 6.89V8.12C15 9.5 14.15 10 13.11 10H7.89C6.85 10 6 9.5 6 8.11V6.89ZM6.5 12.25H9.5C9.91 12.25 10.25 12.59 10.25 13C10.25 13.41 9.91 13.75 9.5 13.75H6.5C6.09 13.75 5.75 13.41 5.75 13C5.75 12.59 6.09 12.25 6.5 12.25Z" fill="#90A3BF"/>
<path d="M31.792 18L35.39 13.31L35.642 13.338C35.502 13.5247 35.348 13.674 35.18 13.786C35.012 13.8887 34.8253 13.9633 34.62 14.01C34.424 14.0567 34.2093 14.08 33.976 14.08C33.36 14.08 32.8047 13.94 32.31 13.66C31.8247 13.3707 31.4373 12.9787 31.148 12.484C30.868 11.98 30.728 11.406 30.728 10.762C30.728 10.118 30.8773 9.544 31.176 9.04C31.4747 8.536 31.8853 8.13933 32.408 7.85C32.9307 7.55133 33.5187 7.402 34.172 7.402C34.844 7.402 35.4367 7.55133 35.95 7.85C36.4727 8.13933 36.8833 8.54533 37.182 9.068C37.4807 9.58133 37.63 10.174 37.63 10.846C37.63 11.21 37.588 11.5693 37.504 11.924C37.42 12.2787 37.2847 12.638 37.098 13.002C36.9207 13.366 36.6827 13.744 36.384 14.136L33.444 18H31.792ZM34.172 12.876C34.5733 12.876 34.928 12.7873 35.236 12.61C35.5533 12.4233 35.8007 12.1713 35.978 11.854C36.1553 11.5273 36.244 11.1633 36.244 10.762C36.244 10.342 36.1507 9.97333 35.964 9.656C35.7867 9.33867 35.544 9.08667 35.236 8.9C34.928 8.71333 34.5733 8.62 34.172 8.62C33.78 8.62 33.43 8.71333 33.122 8.9C32.814 9.08667 32.5667 9.33867 32.38 9.656C32.2027 9.97333 32.114 10.342 32.114 10.762C32.114 11.1633 32.2027 11.5273 32.38 11.854C32.5573 12.1713 32.8 12.4233 33.108 12.61C33.4253 12.7873 33.78 12.876 34.172 12.876ZM43.1829 18.168C42.3522 18.168 41.6242 17.944 40.9989 17.496C40.3829 17.0387 39.9022 16.4087 39.5569 15.606C39.2115 14.794 39.0389 13.8513 39.0389 12.778C39.0389 11.7047 39.2115 10.7667 39.5569 9.964C39.9022 9.152 40.3829 8.522 40.9989 8.074C41.6149 7.626 42.3382 7.402 43.1689 7.402C43.9995 7.402 44.7229 7.626 45.3389 8.074C45.9549 8.522 46.4355 9.152 46.7809 9.964C47.1355 10.7667 47.3129 11.7047 47.3129 12.778C47.3129 13.8513 47.1402 14.794 46.7949 15.606C46.4495 16.418 45.9642 17.048 45.3389 17.496C44.7229 17.944 44.0042 18.168 43.1829 18.168ZM43.1829 16.894C43.7429 16.894 44.2282 16.726 44.6389 16.39C45.0495 16.0447 45.3669 15.564 45.5909 14.948C45.8242 14.332 45.9409 13.6087 45.9409 12.778C45.9409 11.9473 45.8242 11.224 45.5909 10.608C45.3669 9.992 45.0449 9.516 44.6249 9.18C44.2142 8.844 43.7289 8.676 43.1689 8.676C42.6089 8.676 42.1235 8.844 41.7129 9.18C41.3022 9.516 40.9802 9.992 40.7469 10.608C40.5229 11.224 40.4109 11.9473 40.4109 12.778C40.4109 13.5993 40.5229 14.318 40.7469 14.934C40.9802 15.55 41.3022 16.0307 41.7129 16.376C42.1329 16.7213 42.6229 16.894 43.1829 16.894ZM49.1137 18V7.57H50.4857V16.74H55.0637V18H49.1137Z" fill="#90A3BF"/>
<path d="M86 2C80.48 2 76 6.48 76 12C76 17.52 80.48 22 86 22C91.52 22 96 17.52 96 12C96 6.48 91.53 2 86 2Z" fill="#90A3BF"/>
<rect x="78" y="4" width="16" height="16" rx="8" fill="white"/>
<path d="M86 6C82.688 6 80 8.688 80 12C80 15.312 82.688 18 86 18C89.312 18 92 15.312 92 12C92 8.688 89.318 6 86 6Z" fill="#90A3BF"/>
<rect x="82" y="8" width="8" height="8" rx="4" fill="white"/>
<rect x="85" y="17" width="2" height="4" fill="#90A3BF"/>
<rect x="91" y="11" width="4" height="2" fill="#90A3BF"/>
<rect x="77" y="11" width="4" height="2" fill="#90A3BF"/>
<path d="M103.162 18V7.57H104.422L108.328 13.128H107.684L111.562 7.57H112.822V18H111.436V9.306L111.926 9.46L108.048 14.92H107.936L104.1 9.46L104.534 9.306V18H103.162ZM117.197 18.168C116.702 18.168 116.263 18.0793 115.881 17.902C115.507 17.7153 115.213 17.4633 114.999 17.146C114.784 16.8193 114.677 16.446 114.677 16.026C114.677 15.6247 114.761 15.2653 114.929 14.948C115.106 14.6213 115.377 14.346 115.741 14.122C116.114 13.898 116.581 13.7393 117.141 13.646L119.941 13.184V14.276L117.435 14.696C116.949 14.78 116.595 14.934 116.371 15.158C116.156 15.382 116.049 15.6573 116.049 15.984C116.049 16.292 116.17 16.5487 116.413 16.754C116.665 16.9593 116.977 17.062 117.351 17.062C117.827 17.062 118.237 16.964 118.583 16.768C118.937 16.5627 119.213 16.2873 119.409 15.942C119.614 15.5967 119.717 15.214 119.717 14.794V12.876C119.717 12.4653 119.563 12.134 119.255 11.882C118.956 11.6207 118.559 11.49 118.065 11.49C117.635 11.49 117.253 11.602 116.917 11.826C116.59 12.0407 116.347 12.33 116.189 12.694L115.055 12.106C115.195 11.7607 115.419 11.4527 115.727 11.182C116.035 10.902 116.394 10.6827 116.805 10.524C117.215 10.3653 117.645 10.286 118.093 10.286C118.671 10.286 119.18 10.398 119.619 10.622C120.057 10.8367 120.398 11.14 120.641 11.532C120.893 11.9147 121.019 12.3627 121.019 12.876V18H119.745V16.572L119.983 16.656C119.824 16.9547 119.609 17.216 119.339 17.44C119.068 17.664 118.751 17.8413 118.387 17.972C118.023 18.1027 117.626 18.168 117.197 18.168ZM123.037 18V10.454H124.311V11.924L124.101 11.798C124.288 11.322 124.587 10.9533 124.997 10.692C125.417 10.4213 125.907 10.286 126.467 10.286C127.009 10.286 127.489 10.4073 127.909 10.65C128.339 10.8927 128.675 11.2287 128.917 11.658C129.169 12.0873 129.295 12.5727 129.295 13.114V18H127.979V13.534C127.979 13.114 127.905 12.7593 127.755 12.47C127.606 12.1807 127.391 11.9567 127.111 11.798C126.841 11.63 126.528 11.546 126.173 11.546C125.819 11.546 125.501 11.63 125.221 11.798C124.951 11.9567 124.736 12.1853 124.577 12.484C124.419 12.7733 124.339 13.1233 124.339 13.534V18H123.037ZM133.832 18.168C133.291 18.168 132.801 18.042 132.362 17.79C131.933 17.538 131.597 17.188 131.354 16.74C131.121 16.2827 131.004 15.76 131.004 15.172V10.454H132.306V15.032C132.306 15.4053 132.381 15.732 132.53 16.012C132.689 16.292 132.904 16.5113 133.174 16.67C133.454 16.8287 133.772 16.908 134.126 16.908C134.481 16.908 134.794 16.8287 135.064 16.67C135.344 16.5113 135.559 16.2827 135.708 15.984C135.867 15.6853 135.946 15.3307 135.946 14.92V10.454H137.262V18H135.988V16.53L136.198 16.656C136.021 17.132 135.718 17.5053 135.288 17.776C134.868 18.0373 134.383 18.168 133.832 18.168ZM141.491 18.168C140.997 18.168 140.558 18.0793 140.175 17.902C139.802 17.7153 139.508 17.4633 139.293 17.146C139.079 16.8193 138.971 16.446 138.971 16.026C138.971 15.6247 139.055 15.2653 139.223 14.948C139.401 14.6213 139.671 14.346 140.035 14.122C140.409 13.898 140.875 13.7393 141.435 13.646L144.235 13.184V14.276L141.729 14.696C141.244 14.78 140.889 14.934 140.665 15.158C140.451 15.382 140.343 15.6573 140.343 15.984C140.343 16.292 140.465 16.5487 140.707 16.754C140.959 16.9593 141.272 17.062 141.645 17.062C142.121 17.062 142.532 16.964 142.877 16.768C143.232 16.5627 143.507 16.2873 143.703 15.942C143.909 15.5967 144.011 15.214 144.011 14.794V12.876C144.011 12.4653 143.857 12.134 143.549 11.882C143.251 11.6207 142.854 11.49 142.359 11.49C141.93 11.49 141.547 11.602 141.211 11.826C140.885 12.0407 140.642 12.33 140.483 12.694L139.349 12.106C139.489 11.7607 139.713 11.4527 140.021 11.182C140.329 10.902 140.689 10.6827 141.099 10.524C141.51 10.3653 141.939 10.286 142.387 10.286C142.966 10.286 143.475 10.398 143.913 10.622C144.352 10.8367 144.693 11.14 144.935 11.532C145.187 11.9147 145.313 12.3627 145.313 12.876V18H144.039V16.572L144.277 16.656C144.119 16.9547 143.904 17.216 143.633 17.44C143.363 17.664 143.045 17.8413 142.681 17.972C142.317 18.1027 141.921 18.168 141.491 18.168ZM147.332 18V7.402H148.634V18H147.332Z" fill="#90A3BF"/>
<path d="M175 2C172.38 2 170.25 4.13 170.25 6.75C170.25 9.32 172.26 11.4 174.88 11.49C174.96 11.48 175.04 11.48 175.1 11.49C175.12 11.49 175.13 11.49 175.15 11.49C175.16 11.49 175.16 11.49 175.17 11.49C177.73 11.4 179.74 9.32 179.75 6.75C179.75 4.13 177.62 2 175 2Z" fill="#90A3BF"/>
<path d="M180.08 14.1499C177.29 12.2899 172.74 12.2899 169.93 14.1499C168.66 14.9999 167.96 16.1499 167.96 17.3799C167.96 18.6099 168.66 19.7499 169.92 20.5899C171.32 21.5299 173.16 21.9999 175 21.9999C176.84 21.9999 178.68 21.5299 180.08 20.5899C181.34 19.7399 182.04 18.5999 182.04 17.3599C182.03 16.1299 181.34 14.9899 180.08 14.1499Z" fill="#90A3BF"/>
<path d="M185.99 7.3401C186.15 9.2801 184.77 10.9801 182.86 11.2101C182.85 11.2101 182.85 11.2101 182.84 11.2101H182.81C182.75 11.2101 182.69 11.2101 182.64 11.2301C181.67 11.2801 180.78 10.9701 180.11 10.4001C181.14 9.4801 181.73 8.1001 181.61 6.6001C181.54 5.7901 181.26 5.0501 180.84 4.4201C181.22 4.2301 181.66 4.1101 182.11 4.0701C184.07 3.9001 185.82 5.3601 185.99 7.3401Z" fill="#90A3BF"/>
<path d="M187.99 16.5904C187.91 17.5604 187.29 18.4004 186.25 18.9704C185.25 19.5204 183.99 19.7804 182.74 19.7504C183.46 19.1004 183.88 18.2904 183.96 17.4304C184.06 16.1904 183.47 15.0004 182.29 14.0504C181.62 13.5204 180.84 13.1004 179.99 12.7904C182.2 12.1504 184.98 12.5804 186.69 13.9604C187.61 14.7004 188.08 15.6304 187.99 16.5904Z" fill="#90A3BF"/>
<path d="M196.756 18V17.048L199.64 13.926C200.209 13.3193 200.662 12.82 200.998 12.428C201.343 12.036 201.595 11.686 201.754 11.378C201.913 11.07 201.992 10.7433 201.992 10.398C201.992 9.82867 201.824 9.39 201.488 9.082C201.152 8.774 200.709 8.62 200.158 8.62C199.598 8.62 199.122 8.78333 198.73 9.11C198.338 9.42733 198.067 9.88 197.918 10.468L196.672 10.146C196.793 9.586 197.017 9.10067 197.344 8.69C197.671 8.27933 198.077 7.962 198.562 7.738C199.047 7.514 199.579 7.402 200.158 7.402C200.793 7.402 201.348 7.528 201.824 7.78C202.309 8.02267 202.687 8.36333 202.958 8.802C203.238 9.24067 203.378 9.74933 203.378 10.328C203.378 10.7107 203.299 11.084 203.14 11.448C202.981 11.812 202.748 12.1993 202.44 12.61C202.132 13.0113 201.731 13.478 201.236 14.01L198.66 16.81H203.602V18H196.756ZM207.963 18V7.57H211.645C212.335 7.57 212.942 7.70067 213.465 7.962C213.987 8.22333 214.393 8.59667 214.683 9.082C214.981 9.56733 215.131 10.1367 215.131 10.79C215.131 11.4433 214.981 12.0127 214.683 12.498C214.393 12.974 213.987 13.3473 213.465 13.618C212.951 13.8793 212.345 14.01 211.645 14.01H209.335V18H207.963ZM209.335 12.75H211.687C212.107 12.75 212.471 12.6707 212.779 12.512C213.087 12.3533 213.325 12.1247 213.493 11.826C213.661 11.5273 213.745 11.182 213.745 10.79C213.745 10.3887 213.661 10.0433 213.493 9.754C213.325 9.45533 213.087 9.22667 212.779 9.068C212.471 8.90933 212.107 8.83 211.687 8.83H209.335V12.75ZM220.031 18.168C219.303 18.168 218.654 17.9953 218.085 17.65C217.515 17.3047 217.067 16.8333 216.741 16.236C216.414 15.6293 216.251 14.9527 216.251 14.206C216.251 13.45 216.409 12.778 216.727 12.19C217.053 11.602 217.492 11.14 218.043 10.804C218.603 10.4587 219.228 10.286 219.919 10.286C220.479 10.286 220.973 10.3887 221.403 10.594C221.841 10.79 222.21 11.0607 222.509 11.406C222.817 11.742 223.05 12.1293 223.209 12.568C223.377 12.9973 223.461 13.4453 223.461 13.912C223.461 14.0147 223.451 14.1313 223.433 14.262C223.423 14.3833 223.409 14.5 223.391 14.612H217.203V13.492H222.635L222.019 13.996C222.103 13.5107 222.056 13.0767 221.879 12.694C221.701 12.3113 221.44 12.008 221.095 11.784C220.749 11.56 220.357 11.448 219.919 11.448C219.48 11.448 219.079 11.56 218.715 11.784C218.351 12.008 218.066 12.33 217.861 12.75C217.665 13.1607 217.585 13.6507 217.623 14.22C217.585 14.7707 217.669 15.256 217.875 15.676C218.089 16.0867 218.388 16.4087 218.771 16.642C219.163 16.866 219.587 16.978 220.045 16.978C220.549 16.978 220.973 16.8613 221.319 16.628C221.664 16.3947 221.944 16.096 222.159 15.732L223.251 16.292C223.101 16.6373 222.868 16.9547 222.551 17.244C222.243 17.524 221.874 17.748 221.445 17.916C221.025 18.084 220.553 18.168 220.031 18.168ZM228.742 18.168C228.014 18.168 227.356 18 226.768 17.664C226.18 17.3187 225.714 16.8473 225.368 16.25C225.023 15.6527 224.85 14.976 224.85 14.22C224.85 13.464 225.018 12.792 225.354 12.204C225.7 11.616 226.166 11.1493 226.754 10.804C227.342 10.4587 228.005 10.286 228.742 10.286C229.47 10.286 230.128 10.4587 230.716 10.804C231.304 11.14 231.766 11.602 232.102 12.19C232.448 12.778 232.62 13.4547 232.62 14.22C232.62 14.9853 232.443 15.6667 232.088 16.264C231.734 16.852 231.262 17.3187 230.674 17.664C230.096 18 229.452 18.168 228.742 18.168ZM228.742 16.908C229.209 16.908 229.629 16.7913 230.002 16.558C230.385 16.3247 230.684 16.0027 230.898 15.592C231.122 15.1813 231.234 14.724 231.234 14.22C231.234 13.7067 231.122 13.254 230.898 12.862C230.684 12.4607 230.385 12.1433 230.002 11.91C229.629 11.6673 229.209 11.546 228.742 11.546C228.266 11.546 227.837 11.6673 227.454 11.91C227.081 12.1433 226.782 12.4607 226.558 12.862C226.334 13.254 226.222 13.7067 226.222 14.22C226.222 14.724 226.334 15.1813 226.558 15.592C226.782 16.0027 227.081 16.3247 227.454 16.558C227.837 16.7913 228.266 16.908 228.742 16.908ZM234.319 20.8V10.454H235.593V12.078L235.425 11.756C235.705 11.308 236.087 10.9533 236.573 10.692C237.058 10.4213 237.613 10.286 238.239 10.286C238.948 10.286 239.583 10.4587 240.143 10.804C240.712 11.1493 241.16 11.6207 241.487 12.218C241.813 12.806 241.977 13.478 241.977 14.234C241.977 14.9713 241.813 15.6387 241.487 16.236C241.16 16.8333 240.712 17.3047 240.143 17.65C239.583 17.9953 238.943 18.168 238.225 18.168C237.618 18.168 237.063 18.0327 236.559 17.762C236.064 17.4913 235.681 17.1087 235.411 16.614L235.621 16.39V20.8H234.319ZM238.127 16.908C238.603 16.908 239.027 16.7913 239.401 16.558C239.774 16.3247 240.063 16.0073 240.269 15.606C240.483 15.1953 240.591 14.738 240.591 14.234C240.591 13.7113 240.483 13.254 240.269 12.862C240.063 12.4607 239.774 12.1433 239.401 11.91C239.027 11.6673 238.603 11.546 238.127 11.546C237.651 11.546 237.221 11.6627 236.839 11.896C236.465 12.1293 236.167 12.4513 235.943 12.862C235.728 13.2633 235.621 13.7207 235.621 14.234C235.621 14.738 235.728 15.1953 235.943 15.606C236.167 16.0073 236.465 16.3247 236.839 16.558C237.221 16.7913 237.651 16.908 238.127 16.908ZM243.684 18V7.402H244.986V18H243.684ZM250.478 18.168C249.75 18.168 249.101 17.9953 248.532 17.65C247.963 17.3047 247.515 16.8333 247.188 16.236C246.861 15.6293 246.698 14.9527 246.698 14.206C246.698 13.45 246.857 12.778 247.174 12.19C247.501 11.602 247.939 11.14 248.49 10.804C249.05 10.4587 249.675 10.286 250.366 10.286C250.926 10.286 251.421 10.3887 251.85 10.594C252.289 10.79 252.657 11.0607 252.956 11.406C253.264 11.742 253.497 12.1293 253.656 12.568C253.824 12.9973 253.908 13.4453 253.908 13.912C253.908 14.0147 253.899 14.1313 253.88 14.262C253.871 14.3833 253.857 14.5 253.838 14.612H247.65V13.492H253.082L252.466 13.996C252.55 13.5107 252.503 13.0767 252.326 12.694C252.149 12.3113 251.887 12.008 251.542 11.784C251.197 11.56 250.805 11.448 250.366 11.448C249.927 11.448 249.526 11.56 249.162 11.784C248.798 12.008 248.513 12.33 248.308 12.75C248.112 13.1607 248.033 13.6507 248.07 14.22C248.033 14.7707 248.117 15.256 248.322 15.676C248.537 16.0867 248.835 16.4087 249.218 16.642C249.61 16.866 250.035 16.978 250.492 16.978C250.996 16.978 251.421 16.8613 251.766 16.628C252.111 16.3947 252.391 16.096 252.606 15.732L253.698 16.292C253.549 16.6373 253.315 16.9547 252.998 17.244C252.69 17.524 252.321 17.748 251.892 17.916C251.472 18.084 251.001 18.168 250.478 18.168Z" fill="#90A3BF"/>
</svg>
